<svg width="20" height="14" viewBox="0 0 20 14" fill="none" xmlns="http://www.w3.org/2000/svg">
<path fill-rule="evenodd" clip-rule="evenodd" d="M12 0H14C15.3979 0 16.5725 0.95608 16.9055 2.25H19C19.4142 2.25 19.75 2.58579 19.75 3C19.75 3.41421 19.4142 3.75 19 3.75H16.9055C16.5725 5.04392 15.3979 6 14 6H12C10.3431 6 9 4.65685 9 3C9 1.34315 10.3431 0 12 0ZM1 2.25C0.585786 2.25 0.25 2.58579 0.25 3C0.25 3.41421 0.585786 3.75 1 3.75H6C6.41421 3.75 6.75 3.41421 6.75 3C6.75 2.58579 6.41421 2.25 6 2.25H1ZM14 10.25C13.5858 10.25 13.25 10.5858 13.25 11C13.25 11.4142 13.5858 11.75 14 11.75H19C19.4142 11.75 19.75 11.4142 19.75 11C19.75 10.5858 19.4142 10.25 19 10.25H14ZM8 8H6C4.60212 8 3.42755 8.95608 3.09451 10.25H1C0.585786 10.25 0.25 10.5858 0.25 11C0.25 11.4142 0.585786 11.75 1 11.75H3.09451C3.42755 13.0439 4.60212 14 6 14H8C9.65685 14 11 12.6569 11 11C11 9.34315 9.65685 8 8 8Z" fill="white"/>
</svg>
