<svg width="20" height="20" viewBox="0 0 20 20" fill="none" xmlns="http://www.w3.org/2000/svg">
<path fill-rule="evenodd" clip-rule="evenodd" d="M10 0H4.00001C2.32132 0 0.884159 1.03408 0.290771 2.5H13.7093C13.1159 1.03408 11.6787 0 10 0ZM20 14H16C14.8954 14 14 13.1046 14 12C14 10.8954 14.8954 10 16 10H20V14ZM0 4H16C18.2091 4 20 5.79086 20 8V8.5H16C14.067 8.5 12.5 10.067 12.5 12C12.5 13.933 14.067 15.5 16 15.5H20V16C20 18.2091 18.2091 20 16 20H4C1.79086 20 0 18.2091 0 16V4Z" fill="#43FFF1"/>
</svg>
