<svg width="21" height="20" viewBox="0 0 21 20" fill="none" xmlns="http://www.w3.org/2000/svg">
<path fill-rule="evenodd" clip-rule="evenodd" d="M20.2 10C20.2 15.5228 15.7228 20 10.2 20C4.6771 20 0.199951 15.5228 0.199951 10C0.199951 4.47715 4.6771 0 10.2 0C15.7228 0 20.2 4.47715 20.2 10ZM10.2 9.25C9.50959 9.25 8.94995 8.69036 8.94995 8C8.94995 7.30964 9.50959 6.75 10.2 6.75C10.8903 6.75 11.45 7.30964 11.45 8C11.45 8.41421 11.7857 8.75 12.2 8.75C12.6142 8.75 12.95 8.41421 12.95 8C12.95 6.74122 12.1042 5.67998 10.95 5.35352V4.5C10.95 4.08579 10.6142 3.75 10.2 3.75C9.78574 3.75 9.44995 4.08579 9.44995 4.5V5.35352C8.2957 5.67998 7.44995 6.74122 7.44995 8C7.44995 9.51878 8.68117 10.75 10.2 10.75C10.8903 10.75 11.45 11.3096 11.45 12C11.45 12.6904 10.8903 13.25 10.2 13.25C9.50959 13.25 8.94995 12.6904 8.94995 12C8.94995 11.5858 8.61416 11.25 8.19995 11.25C7.78574 11.25 7.44995 11.5858 7.44995 12C7.44995 13.2588 8.2957 14.32 9.44995 14.6465V15.5C9.44995 15.9142 9.78574 16.25 10.2 16.25C10.6142 16.25 10.95 15.9142 10.95 15.5V14.6465C12.1042 14.32 12.95 13.2588 12.95 12C12.95 10.4812 11.7187 9.25 10.2 9.25Z" fill="#6379A1"/>
</svg>
