<svg width="165" height="24" viewBox="0 0 165 24" fill="none" xmlns="http://www.w3.org/2000/svg">
<g clip-path="url(#clip0_452_4724)">
<path d="M24.5469 15.5142C24.5469 9.8698 28.6005 7.09351 32.2807 7.09351C35.149 7.09351 36.8351 8.65202 37.084 9.24462H37.1788V7.40462H42.0117V23.6209H37.1788V21.7809H37.084C36.8351 22.3735 35.149 23.932 32.2807 23.932C28.6005 23.932 24.5469 21.1557 24.5469 15.5113V15.5142ZM33.2793 19.6298C35.4009 19.6298 37.3033 18.1631 37.3033 15.5142C37.3033 12.8654 35.4009 11.3987 33.2793 11.3987C31.1577 11.3987 29.3176 12.895 29.3176 15.5142C29.3176 18.1335 31.2199 19.6298 33.2793 19.6298Z" fill="white"/>
<path d="M45.938 18.6343V11.2447H43.5378V7.40767H45.938V3.25952H50.7709V7.40767H54.1696V11.2447H50.7709V17.8551C50.7709 18.6669 51.2391 19.538 52.7058 19.538C53.0792 19.538 53.6422 19.4758 54.2348 19.2892V22.9692C53.6096 23.5943 52.2377 23.8106 51.1176 23.8106C48.1248 23.8106 45.941 22.344 45.941 18.6343H45.938Z" fill="white"/>
<path d="M55.8555 1.48169H60.6884V9.46687C61.5921 8.09502 63.1834 7.0965 65.4916 7.0965C68.7659 7.0965 71.5424 9.12317 71.5424 14.0832V23.6269H66.7095V14.9276C66.7095 12.9009 65.6813 11.4047 63.6841 11.4047C61.687 11.4047 60.6913 12.9009 60.6913 14.9276V23.6269H55.8584V1.48169H55.8555Z" fill="white"/>
<path d="M73.0715 15.5142C73.0715 9.99425 77.4363 7.09351 81.6795 7.09351C85.9227 7.09351 90.2875 9.99425 90.2875 15.5142C90.2875 21.0342 85.9227 23.935 81.6795 23.935C77.4363 23.935 73.0715 21.0342 73.0715 15.5142ZM81.6795 19.5676C83.7685 19.5676 85.5168 18.0091 85.5168 15.5142C85.5168 13.0194 83.7715 11.4609 81.6795 11.4609C79.5875 11.4609 77.8452 13.0194 77.8452 15.5142C77.8452 18.0091 79.5905 19.5676 81.6795 19.5676Z" fill="white"/>
<path d="M101.98 14.4535C101.98 12.3942 100.857 11.3987 99.3903 11.3987C97.9235 11.3987 96.6464 12.3972 96.6464 14.4535V23.6209H91.8135V7.40755H96.6464V9.40458C97.5205 8.06236 99.0169 7.09644 101.168 7.09644C103.071 7.09644 104.724 7.90829 105.752 9.65347C106.751 8.18681 108.496 7.09644 111.053 7.09644C114.485 7.09644 116.98 9.28014 116.98 14.2698V23.6238H112.147V14.4564C112.147 12.3972 111.024 11.4016 109.557 11.4016C107.998 11.4016 106.813 12.4001 106.813 14.4564V23.6238H101.98V14.4564V14.4535Z" fill="white"/>
<path d="M22.1051 0.296387H0V5.12602H22.1051V0.296387Z" fill="white"/>
<path d="M0 13.9379C0 12.326 0 10.7172 0 9.10827C7.63012 12.9364 14.472 5.28012 22.1051 9.10827C22.1051 10.7172 22.1051 12.326 22.1051 13.9379C14.475 10.1097 7.63012 17.7631 0 13.9379Z" fill="white"/>
<path d="M3.22095 24.012C4.99983 24.012 6.4419 22.5701 6.4419 20.7913C6.4419 19.0125 4.99983 17.5706 3.22095 17.5706C1.44207 17.5706 0 19.0125 0 20.7913C0 22.5701 1.44207 24.012 3.22095 24.012Z" fill="white"/>
<path d="M117.413 1.36496C117.509 1.14873 117.636 0.962582 117.8 0.802761C117.964 0.64482 118.154 0.518843 118.372 0.428591C118.59 0.338339 118.819 0.293213 119.064 0.293213C119.308 0.293213 119.538 0.338339 119.754 0.428591C119.97 0.518843 120.158 0.64294 120.32 0.802761C120.481 0.960702 120.609 1.14873 120.705 1.36496C120.801 1.58119 120.848 1.81434 120.848 2.06441C120.848 2.31448 120.801 2.55892 120.705 2.77514C120.609 2.99325 120.481 3.18128 120.32 3.3411C120.158 3.50092 119.97 3.62502 119.754 3.71527C119.538 3.80364 119.308 3.84877 119.064 3.84877C118.819 3.84877 118.588 3.80364 118.372 3.71527C118.155 3.6269 117.964 3.5028 117.8 3.3411C117.636 3.18128 117.507 2.99325 117.413 2.77514C117.317 2.55892 117.27 2.32012 117.27 2.06441C117.27 1.8087 117.317 1.58119 117.413 1.36496ZM117.706 2.66985C117.781 2.856 117.883 3.01582 118.014 3.15308C118.146 3.29033 118.302 3.39563 118.481 3.4746C118.659 3.55169 118.855 3.59117 119.064 3.59117C119.272 3.59117 119.462 3.55169 119.639 3.4746C119.816 3.39751 119.972 3.29033 120.103 3.15308C120.235 3.01582 120.339 2.856 120.412 2.66985C120.487 2.48371 120.523 2.28252 120.523 2.06253C120.523 1.84254 120.485 1.65263 120.412 1.46837C120.337 1.28411 120.235 1.12428 120.103 0.990786C119.972 0.855408 119.818 0.750114 119.639 0.671143C119.462 0.594053 119.27 0.554568 119.064 0.554568C118.857 0.554568 118.659 0.594053 118.481 0.671143C118.302 0.748234 118.146 0.855408 118.014 0.990786C117.883 1.12616 117.779 1.28411 117.706 1.46837C117.631 1.65263 117.595 1.85006 117.595 2.06253C117.595 2.275 117.633 2.48371 117.706 2.66985ZM119.175 1.03027C119.423 1.03027 119.605 1.07916 119.724 1.17693C119.842 1.2747 119.902 1.42512 119.902 1.62443C119.902 1.81246 119.85 1.94783 119.746 2.03621C119.641 2.1227 119.511 2.17534 119.355 2.19039L119.949 3.10795H119.601L119.035 2.21295H118.693V3.10795H118.37V1.03215H119.175V1.03027ZM119.032 1.95347C119.105 1.95347 119.173 1.95159 119.239 1.94595C119.304 1.94031 119.361 1.92715 119.412 1.90647C119.462 1.88391 119.502 1.85006 119.532 1.80493C119.562 1.75981 119.577 1.694 119.577 1.61315C119.577 1.54358 119.564 1.48717 119.538 1.44581C119.511 1.40444 119.475 1.37248 119.432 1.34991C119.389 1.32735 119.34 1.31231 119.286 1.30479C119.229 1.29727 119.175 1.29351 119.122 1.29351H118.693V1.95536H119.032V1.95347Z" fill="white"/>
</g>
<path d="M129.714 16H124.897V0H129.928C131.442 0 132.738 0.320313 133.816 0.960938C134.893 1.59635 135.719 2.51042 136.293 3.70313C136.867 4.89062 137.154 6.3125 137.154 7.96875C137.154 9.63542 136.865 11.0703 136.285 12.2734C135.706 13.4714 134.862 14.3932 133.755 15.0391C132.647 15.6797 131.3 16 129.714 16ZM126.787 14.2812H129.592C130.883 14.2812 131.953 14.026 132.802 13.5156C133.65 13.0052 134.283 12.2786 134.7 11.3359C135.117 10.3932 135.325 9.27083 135.325 7.96875C135.325 6.67708 135.119 5.5651 134.707 4.63281C134.296 3.69531 133.681 2.97656 132.863 2.47656C132.045 1.97135 131.026 1.71875 129.806 1.71875H126.787V14.2812Z" fill="white"/>
<path d="M140.54 16V0H149.962V1.71875H142.431V7.125H149.474V8.84375H142.431V14.2812H150.084V16H140.54Z" fill="white"/>
<path d="M154.499 0L158.524 6.65625H158.646L162.671 0H164.897L159.988 8L164.897 16H162.671L158.646 9.46875H158.524L154.499 16H152.273L157.304 8L152.273 0H154.499Z" fill="white"/>
<defs>
<clipPath id="clip0_452_4724">
<rect width="120.897" height="24" fill="white"/>
</clipPath>
</defs>
</svg>
