<svg width="25" height="24" viewBox="0 0 25 24" fill="none" xmlns="http://www.w3.org/2000/svg">
<path d="M8.75578 12.4526L5.65901 15.5494C5.35667 15.8517 5.35667 16.3419 5.65901 16.6442L8.75578 19.741C9.05812 20.0434 9.54832 20.0434 9.85066 19.741C10.153 19.4387 10.153 18.9485 9.85066 18.6461L8.07551 16.871L18.5935 16.871C19.0211 16.871 19.3677 16.5244 19.3677 16.0968C19.3677 15.6692 19.0211 15.3226 18.5935 15.3226H8.07552L9.85066 13.5475C10.153 13.2451 10.153 12.7549 9.85066 12.4526C9.54832 12.1503 9.05812 12.1503 8.75578 12.4526Z" fill="#6379A1"/>
<path d="M19.141 8.38618C19.4433 8.08384 19.4433 7.59364 19.141 7.2913L16.0442 4.19453C15.7419 3.89219 15.2517 3.89219 14.9493 4.19453C14.647 4.49687 14.647 4.98706 14.9493 5.2894L16.7245 7.06455L6.20644 7.06455C5.77887 7.06455 5.43225 7.41117 5.43225 7.83874C5.43225 8.26632 5.77887 8.61294 6.20644 8.61294L16.7245 8.61293L14.9493 10.3881C14.647 10.6904 14.647 11.1806 14.9493 11.483C15.2517 11.7853 15.7419 11.7853 16.0442 11.483L19.141 8.38618Z" fill="#6379A1"/>
</svg>
