<svg width="28" height="28" viewBox="0 0 28 28" fill="none" xmlns="http://www.w3.org/2000/svg">
<g id="bank_3914398 1">
<path id="Vector" d="M24.9994 24.0834C24.9994 24.3265 24.9029 24.5596 24.731 24.7315C24.5591 24.9034 24.326 25 24.0829 25H3.91806C3.67497 25 3.44183 24.9034 3.26994 24.7315C3.09805 24.5596 3.00148 24.3265 3.00148 24.0834C3.00148 23.8403 3.09805 23.6071 3.26994 23.4353C3.44183 23.2634 3.67497 23.1668 3.91806 23.1668H24.0829C24.326 23.1668 24.5591 23.2634 24.731 23.4353C24.9029 23.6071 24.9994 23.8403 24.9994 24.0834ZM3.2682 10.8402C3.0707 10.4739 2.9792 10.0597 3.00397 9.64428C3.02874 9.22883 3.1688 8.82849 3.40844 8.48821C3.80006 7.91361 4.32451 7.44196 4.9373 7.1133L11.8126 3.53486C12.4883 3.18346 13.2388 3 14.0005 3C14.7621 3 15.5126 3.18346 16.1883 3.53486L23.0627 7.11605C23.6755 7.44471 24.1999 7.91636 24.5916 8.49096C24.8312 8.83124 24.9713 9.23158 24.996 9.64704C25.0208 10.0625 24.9293 10.4766 24.7318 10.843C24.5192 11.2452 24.2003 11.5814 23.8098 11.8149C23.4193 12.0485 22.9723 12.1704 22.5173 12.1675H22.2497V19.5003H23.1663C23.4094 19.5003 23.6425 19.5969 23.8144 19.7688C23.9863 19.9407 24.0829 20.1739 24.0829 20.417C24.0829 20.6601 23.9863 20.8932 23.8144 21.0651C23.6425 21.237 23.4094 21.3336 23.1663 21.3336H4.83464C4.59155 21.3336 4.35841 21.237 4.18652 21.0651C4.01463 20.8932 3.91806 20.6601 3.91806 20.417C3.91806 20.1739 4.01463 19.9407 4.18652 19.7688C4.35841 19.5969 4.59155 19.5003 4.83464 19.5003H5.75122V12.1675H5.48358C5.02818 12.1703 4.58075 12.0481 4.19009 11.814C3.79943 11.58 3.48054 11.2431 3.2682 10.8402ZM7.58439 19.5003H10.3341V12.1675H7.58439V19.5003ZM12.1673 12.1675V19.5003H15.8336V12.1675H12.1673ZM20.4165 12.1675H17.6668V19.5003H20.4165V12.1675ZM4.89239 9.99053C4.94989 10.0966 5.03548 10.1847 5.13975 10.2454C5.24403 10.306 5.36298 10.3367 5.48358 10.3343H22.5173C22.6379 10.3367 22.7569 10.306 22.8612 10.2454C22.9654 10.1847 23.051 10.0966 23.1085 9.99053C23.1504 9.92047 23.1707 9.8396 23.1668 9.75806C23.1629 9.67652 23.1349 9.59796 23.0865 9.53223C22.8645 9.20217 22.5661 8.93051 22.2167 8.74028L15.3423 5.15909C14.928 4.94408 14.4681 4.83184 14.0014 4.83184C13.5346 4.83184 13.0747 4.94408 12.6604 5.15909L5.78605 8.74028C5.43682 8.93113 5.13851 9.20304 4.91622 9.53315C4.86772 9.5986 4.83959 9.6769 4.83535 9.75825C4.83112 9.8396 4.85095 9.9204 4.89239 9.99053Z" fill="#415D83"/>
</g>
</svg>
