<svg width="24" height="24" viewBox="0 0 24 24" fill="none" xmlns="http://www.w3.org/2000/svg">
<path fill-rule="evenodd" clip-rule="evenodd" d="M12.5 10.8571C14.0815 10.8571 15.3636 9.32212 15.3636 7.42857C15.3636 5.53502 14.0815 4 12.5 4C10.9185 4 9.63636 5.53502 9.63636 7.42857C9.63636 9.32212 10.9185 10.8571 12.5 10.8571ZM12.4999 19.9999C16.1902 19.9999 19.1818 18.4649 19.1818 16.5714C19.1818 14.6778 16.1902 13.1428 12.4999 13.1428C8.80967 13.1428 5.81812 14.6778 5.81812 16.5714C5.81812 18.4649 8.80967 19.9999 12.4999 19.9999ZM6.77273 13.1428C4.08264 13.324 2 14.5767 2 16.095C2 17.3468 3.41547 18.418 5.41985 18.8571C4.97195 18.1945 4.72313 17.4613 4.72313 16.69C4.72313 15.3294 5.49733 14.0874 6.77273 13.1428ZM20.2769 16.69C20.2769 17.4613 20.0281 18.1945 19.5802 18.8571C21.5846 18.418 23 17.3468 23 16.095C23 14.5767 20.9174 13.324 18.2273 13.1428C19.5027 14.0874 20.2769 15.3294 20.2769 16.69ZM16.0493 10.3262C16.5201 9.50103 16.7955 8.5033 16.7955 7.42858C16.7955 7.07194 16.7652 6.72378 16.7074 6.38759C16.8861 6.32138 17.0759 6.28572 17.2728 6.28572C18.3271 6.28572 19.1819 7.30907 19.1819 8.57143C19.1819 9.8338 18.3271 10.8571 17.2728 10.8571C16.8072 10.8571 16.3806 10.6577 16.0493 10.3262ZM7.72721 6.28572C7.92402 6.28572 8.11388 6.32138 8.29252 6.38759C8.2348 6.72378 8.20448 7.07194 8.20448 7.42858C8.20448 8.5033 8.47982 9.50103 8.95065 10.3262C8.61935 10.6577 8.19274 10.8571 7.72721 10.8571C6.67284 10.8571 5.81812 9.8338 5.81812 8.57143C5.81812 7.30907 6.67284 6.28572 7.72721 6.28572Z" fill="#6379A1"/>
</svg>
