<svg width="25" height="25" viewBox="0 0 25 25" fill="none" xmlns="http://www.w3.org/2000/svg">
<path d="M12.4183 12.3958C13.3701 12.3958 14.3005 12.1135 15.092 11.5847C15.8834 11.0559 16.5002 10.3043 16.8644 9.42492C17.2287 8.54555 17.324 7.57791 17.1383 6.64438C16.9526 5.71085 16.4943 4.85334 15.8212 4.1803C15.1482 3.50726 14.2907 3.04892 13.3571 2.86322C12.4236 2.67753 11.456 2.77284 10.5766 3.13708C9.69724 3.50133 8.94563 4.11816 8.41683 4.90957C7.88802 5.70098 7.60577 6.63143 7.60577 7.58325C7.60577 8.85961 8.1128 10.0837 9.01532 10.9862C9.91784 11.8887 11.1419 12.3958 12.4183 12.3958ZM11.8539 8.02075C11.3898 8.02075 10.9447 7.83638 10.6165 7.50819C10.2883 7.18 10.1039 6.73488 10.1039 6.27075C10.1039 5.80662 10.2883 5.36151 10.6165 5.03332C10.9447 4.70513 11.3898 4.52075 11.8539 4.52075H11.9808V3.45763H12.8558V4.52075H12.9826C13.4468 4.52075 13.8919 4.70513 14.2201 5.03332C14.5483 5.36151 14.7326 5.80662 14.7326 6.27075H13.8576C13.8576 6.03869 13.7655 5.81613 13.6014 5.65204C13.4373 5.48794 13.2147 5.39575 12.9826 5.39575H12.8558V7.14575H12.9826C13.4468 7.14575 13.8919 7.33013 14.2201 7.65832C14.5483 7.98651 14.7326 8.43162 14.7326 8.89575C14.7326 9.35988 14.5483 9.805 14.2201 10.1332C13.8919 10.4614 13.4468 10.6458 12.9826 10.6458H12.8558V11.7089H11.9808V10.6458H11.8539C11.3898 10.6458 10.9447 10.4614 10.6165 10.1332C10.2883 9.805 10.1039 9.35988 10.1039 8.89575H10.9789C10.9789 9.12782 11.0711 9.35038 11.2352 9.51447C11.3993 9.67857 11.6218 9.77075 11.8539 9.77075H11.9808V8.02075H11.8539Z" fill="#8EA4CC"/>
<path d="M11.9808 5.39575H11.8539C11.6218 5.39575 11.3993 5.48794 11.2352 5.65203C11.0711 5.81613 10.9789 6.03869 10.9789 6.27075C10.9789 6.50282 11.0711 6.72538 11.2352 6.88947C11.3993 7.05356 11.6218 7.14575 11.8539 7.14575H11.9808V5.39575ZM13.8576 8.89575C13.8576 8.66369 13.7655 8.44113 13.6014 8.27703C13.4373 8.11294 13.2147 8.02075 12.9826 8.02075H12.8558V9.77075H12.9826C13.2147 9.77075 13.4373 9.67856 13.6014 9.51447C13.7655 9.35038 13.8576 9.12782 13.8576 8.89575ZM22.0433 18.8926C21.8752 18.8652 21.7033 18.8719 21.5379 18.9125C21.3725 18.9531 21.217 19.0267 21.0808 19.1289L18.3551 21.1676L13.3633 22.0208L12.2826 21.4826L12.6151 21.1501L16.837 20.7958C17.1855 20.7639 17.5093 20.6024 17.7443 20.3431C17.9793 20.0838 18.1083 19.7457 18.1058 19.3958C18.1058 19.0532 17.9817 18.7221 17.7565 18.464C17.5313 18.2058 17.2202 18.0379 16.8808 17.9914L11.1626 17.2083C11.112 17.1992 11.0602 17.1992 11.0095 17.2083L7.12015 18.0833H3.66827C3.55224 18.0833 3.44096 18.1293 3.35891 18.2114C3.27687 18.2934 3.23077 18.4047 3.23077 18.5208V23.3333C3.23077 23.4493 3.27687 23.5606 3.35891 23.6426C3.44096 23.7247 3.55224 23.7708 3.66827 23.7708H6.22327L11.4033 25.5208C11.4497 25.5271 11.4968 25.5271 11.5433 25.5208C11.5679 25.5253 11.5931 25.5253 11.6176 25.5208L19.0551 24.2083C19.135 24.1967 19.2096 24.1617 19.2695 24.1076L22.6776 21.0801C22.9027 20.8777 23.0477 20.6012 23.0863 20.301C23.1248 20.0007 23.0543 19.6966 22.8876 19.4439C22.7913 19.2999 22.6668 19.1768 22.5217 19.0821C22.3766 18.9873 22.2139 18.9229 22.0433 18.8926Z" fill="#8EA4CC"/>
<path d="M12.4183 13.7083C13.6297 13.7083 14.8139 13.349 15.8211 12.676C16.8284 12.003 17.6134 11.0464 18.077 9.92719C18.5406 8.80799 18.6619 7.57646 18.4256 6.38833C18.1892 5.20019 17.6059 4.10882 16.7493 3.25223C15.8927 2.39563 14.8013 1.81228 13.6132 1.57594C12.4251 1.33961 11.1935 1.46091 10.0743 1.92449C8.95514 2.38808 7.99855 3.17314 7.32552 4.18039C6.6525 5.18764 6.29327 6.37184 6.29327 7.58325C6.29327 9.2077 6.93858 10.7656 8.08724 11.9143C9.2359 13.0629 10.7938 13.7083 12.4183 13.7083ZM12.4183 2.89943C13.3446 2.89943 14.2502 3.17413 15.0205 3.6888C15.7907 4.20346 16.3911 4.93498 16.7456 5.79083C17.1001 6.64669 17.1928 7.58845 17.0121 8.49702C16.8314 9.40559 16.3853 10.2402 15.7302 10.8952C15.0752 11.5503 14.2406 11.9964 13.332 12.1771C12.4235 12.3578 11.4817 12.265 10.6259 11.9105C9.77 11.556 9.03848 10.9557 8.52382 10.1854C8.00915 9.41519 7.73445 8.50963 7.73445 7.58325C7.73445 6.34103 8.22792 5.14968 9.10631 4.27129C9.9847 3.3929 11.176 2.89943 12.4183 2.89943Z" fill="#8EA4CC"/>
</svg>
