<svg width="24" height="24" viewBox="0 0 24 24" fill="none" xmlns="http://www.w3.org/2000/svg">
<path d="M21 21.5213C21 21.7846 20.5796 22 20.0657 22H3.93426C3.42042 22 3 21.7846 3 21.5213V19.4787C3 19.2154 3.42042 19 3.93426 19H20.0657C20.5796 19 21 19.2154 21 19.4787V21.5213Z" fill="#6D86B2"/>
<path d="M21.9807 6.30438C22.3265 6.68698 22.1874 6.99991 21.6718 6.99991H2.23434C1.71872 6.99991 1.57978 6.68698 1.92553 6.30438L5.35687 2.50779C5.70262 2.12519 6.40744 1.81226 6.92306 1.81226H16.983C17.4986 1.81226 18.2035 2.12519 18.5491 2.50769L21.9807 6.30438Z" fill="#6D86B2"/>
<path d="M2.23472 7.93759C1.71909 7.93759 1.29703 7.94219 1.29684 7.94781C1.29684 7.94781 1.29684 7.94781 1.29684 7.95306C1.29684 9.11941 2.24231 10.0651 3.40875 10.0651C4.53244 10.0651 5.10009 8.91981 5.10009 8.91981C5.32913 8.45781 5.70384 8.45781 5.93278 8.91981C5.93278 8.91981 6.50044 10.065 7.62422 10.065C8.74809 10.065 9.31566 8.91953 9.31566 8.91953C9.54459 8.45753 9.91922 8.45753 10.1482 8.91953C10.1482 8.91953 10.7158 10.065 11.8396 10.065C12.9637 10.065 13.5312 8.91925 13.5312 8.91925C13.76 8.45725 14.1348 8.45725 14.3636 8.91925C14.3636 8.91925 14.9314 10.065 16.0553 10.065C17.179 10.065 17.7467 8.91981 17.7467 8.91981C17.9756 8.45781 18.3502 8.45781 18.5794 8.91981C18.5794 8.91981 19.147 10.065 20.2707 10.065C21.4371 10.065 22.3825 9.1195 22.3825 7.95306C22.3825 7.94781 22.3825 7.94781 22.3825 7.94781C22.3823 7.94209 21.9603 7.9375 21.4447 7.9375L2.23472 7.93759Z" fill="#6D86B2"/>
<path d="M18.93 10.145C18.6865 9.95343 18.291 9.9514 18.0515 10.1406C17.8119 10.3297 17 11.0209 17 11.3943V17.321C17 17.6945 17.3068 18 17.6818 18H19.3182C19.6932 18 20 17.6945 20 17.321V11.4033C20 11.0299 19.1736 10.3366 18.93 10.145Z" fill="#6D86B2"/>
<path d="M5.93009 10.145C5.68655 9.95343 5.29109 9.9514 5.0515 10.1406C4.81191 10.3297 4 11.0209 4 11.3943V17.321C4 17.6945 4.30682 18 4.68182 18H6.31818C6.69318 18 7 17.6945 7 17.321V11.4033C7 11.0299 6.17364 10.3366 5.93009 10.145Z" fill="#6D86B2"/>
<path fill-rule="evenodd" clip-rule="evenodd" d="M14.5 15C14.5 16.3807 13.3807 17.5 12 17.5C10.6193 17.5 9.5 16.3807 9.5 15C9.5 13.6193 10.6193 12.5 12 12.5C13.3807 12.5 14.5 13.6193 14.5 15ZM12 14.75C11.8619 14.75 11.75 14.6381 11.75 14.5C11.75 14.3619 11.8619 14.25 12 14.25C12.1381 14.25 12.25 14.3619 12.25 14.5C12.25 14.6381 12.3619 14.75 12.5 14.75C12.6381 14.75 12.75 14.6381 12.75 14.5C12.75 14.1734 12.5413 13.8956 12.25 13.7927V13.625C12.25 13.4869 12.1381 13.375 12 13.375C11.8619 13.375 11.75 13.4869 11.75 13.625V13.7927C11.4587 13.8956 11.25 14.1734 11.25 14.5C11.25 14.9142 11.5858 15.25 12 15.25C12.1381 15.25 12.25 15.3619 12.25 15.5C12.25 15.6381 12.1381 15.75 12 15.75C11.8619 15.75 11.75 15.6381 11.75 15.5C11.75 15.3619 11.6381 15.25 11.5 15.25C11.3619 15.25 11.25 15.3619 11.25 15.5C11.25 15.8266 11.4587 16.1044 11.75 16.2073V16.375C11.75 16.5131 11.8619 16.625 12 16.625C12.1381 16.625 12.25 16.5131 12.25 16.375V16.2073C12.5413 16.1044 12.75 15.8266 12.75 15.5C12.75 15.0858 12.4142 14.75 12 14.75Z" fill="#6D86B3"/>
</svg>
