<svg width="30" height="30" viewBox="0 0 30 30" fill="none" xmlns="http://www.w3.org/2000/svg">
<path fill-rule="evenodd" clip-rule="evenodd" d="M27 14C27 19.5228 22.5228 24 17 24C11.4772 24 7 19.5228 7 14C7 8.47715 11.4772 4 17 4C22.5228 4 27 8.47715 27 14ZM17 13.25C16.3096 13.25 15.75 12.6904 15.75 12C15.75 11.3096 16.3096 10.75 17 10.75C17.6904 10.75 18.25 11.3096 18.25 12C18.25 12.4142 18.5858 12.75 19 12.75C19.4142 12.75 19.75 12.4142 19.75 12C19.75 10.7412 18.9043 9.67998 17.75 9.35352V8.5C17.75 8.08579 17.4142 7.75 17 7.75C16.5858 7.75 16.25 8.08579 16.25 8.5V9.35352C15.0957 9.67998 14.25 10.7412 14.25 12C14.25 13.5188 15.4812 14.75 17 14.75C17.6904 14.75 18.25 15.3096 18.25 16C18.25 16.6904 17.6904 17.25 17 17.25C16.3096 17.25 15.75 16.6904 15.75 16C15.75 15.5858 15.4142 15.25 15 15.25C14.5858 15.25 14.25 15.5858 14.25 16C14.25 17.2588 15.0957 18.32 16.25 18.6465V19.5C16.25 19.9142 16.5858 20.25 17 20.25C17.4142 20.25 17.75 19.9142 17.75 19.5V18.6465C18.9043 18.32 19.75 17.2588 19.75 16C19.75 14.4812 18.5188 13.25 17 13.25Z" fill="#6D86B3"/>
<path fill-rule="evenodd" clip-rule="evenodd" d="M10.5813 5.43404C5.91984 8.39588 4.54201 14.5758 7.50385 19.2373C8.57303 20.92 10.0616 22.1748 11.7467 22.9521C8.4619 22.9305 5.25532 21.2926 3.36273 18.3139C0.400895 13.6525 1.77873 7.47254 6.44021 4.5107C9.41895 2.61806 13.0177 2.49745 16.0006 3.87335C14.1449 3.86113 12.2641 4.3648 10.5813 5.43404Z" fill="#6D86B3"/>
</svg>
