<svg width="28" height="28" viewBox="0 0 28 28" fill="none" xmlns="http://www.w3.org/2000/svg">
<g id="deposit-alt_13794216 1">
<path id="Vector" d="M10.6029 6.77758C10.2445 6.41917 10.2445 5.83983 10.6029 5.48142C10.9612 5.123 11.5405 5.123 11.8988 5.48142L13.0839 6.66667V3.91667C13.0839 3.41067 13.4945 3 14.0005 3C14.5064 3 14.917 3.41067 14.917 3.91667V6.66667L16.1021 5.48142C16.4604 5.123 17.0397 5.123 17.398 5.48142C17.7564 5.83983 17.7564 6.41917 17.398 6.77758L15.2964 8.8795C14.939 9.237 14.4697 9.41575 14.0005 9.41575C13.5312 9.41575 13.0619 9.237 12.7045 8.8795L10.6029 6.77758ZM13.0839 13.0833V14C11.568 14 10.3343 15.2338 10.3343 16.75C10.3343 17.9967 11.227 19.0508 12.4561 19.2553L15.2442 19.72C15.5861 19.7768 15.8344 20.0702 15.8344 20.4167C15.8344 20.9218 15.4238 21.3333 14.9179 21.3333H12.8392C12.5129 21.3333 12.2086 21.1573 12.0446 20.875C11.7907 20.4368 11.2298 20.2865 10.7926 20.5404C10.3536 20.7943 10.2042 21.3544 10.4581 21.7926C10.9484 22.6405 11.8604 23.1667 12.8392 23.1667H13.0848V24.0833C13.0848 24.5893 13.4954 25 14.0014 25C14.5073 25 14.9179 24.5893 14.9179 24.0833V23.1667C16.4339 23.1667 17.6675 21.9328 17.6675 20.4167C17.6675 19.17 16.7748 18.1158 15.5457 17.9114L12.7586 17.4467C12.4167 17.3898 12.1683 17.0965 12.1683 16.75C12.1683 16.2449 12.5798 15.8333 13.0848 15.8333H15.1635C15.4898 15.8333 15.7941 16.0093 15.9582 16.2917C16.2093 16.7308 16.7702 16.8793 17.2102 16.6263C17.6483 16.3723 17.7986 15.8123 17.5438 15.3741C17.0543 14.5262 16.1415 13.9991 15.1626 13.9991H14.917V13.0824C14.917 12.5764 14.5064 12.1657 14.0005 12.1657C13.4945 12.1657 13.0839 12.5764 13.0839 13.0824V13.0833ZM24.0823 23.1667H22.2493V12.1667H22.5169C23.4545 12.1667 24.3041 11.6579 24.7321 10.8393C25.1336 10.0721 25.0813 9.19208 24.5919 8.48717C24.1813 7.89592 23.6534 7.42108 23.0631 7.114L20.6426 5.85358C20.1916 5.618 19.639 5.794 19.4062 6.24317C19.1725 6.69233 19.3466 7.246 19.7957 7.47975L22.2163 8.74108C22.5435 8.91158 22.845 9.18567 23.0861 9.53308C23.1841 9.67517 23.1915 9.82917 23.1071 9.9905C23.0201 10.1564 22.8203 10.3343 22.516 10.3343H5.48403C5.17974 10.3343 4.97902 10.1564 4.89195 9.9905C4.80763 9.83008 4.81588 9.67608 4.91303 9.534C5.15592 9.18567 5.45654 8.91158 5.78374 8.74108L8.2043 7.48067C8.65341 7.24692 8.82755 6.69325 8.59383 6.24408C8.36103 5.79492 7.80745 5.61983 7.35743 5.8545L4.93686 7.11492C4.34753 7.422 3.81869 7.89683 3.40809 8.48808C2.91866 9.193 2.86642 10.0721 3.26786 10.8393C3.69588 11.6588 4.5455 12.1667 5.48403 12.1667H5.75166V23.1667H3.9186C3.41267 23.1667 3.00206 23.5773 3.00206 24.0833C3.00206 24.5893 3.41267 25 3.9186 25H9.41779C9.92372 25 10.3343 24.5893 10.3343 24.0833C10.3343 23.5773 9.92372 23.1667 9.41779 23.1667H7.58473V12.1667H20.4162V23.1667H18.5831C18.0763 23.1667 17.6666 23.5773 17.6666 24.0833C17.6666 24.5893 18.0763 25 18.5831 25H24.0823C24.5892 25 24.9989 24.5893 24.9989 24.0833C24.9989 23.5773 24.5892 23.1667 24.0823 23.1667Z" fill="#415D83"/>
</g>
</svg>
