<svg width="28" height="28" viewBox="0 0 28 28" fill="none" xmlns="http://www.w3.org/2000/svg">
<path d="M2.3335 7.29167C2.3335 6.28605 2.73297 5.32163 3.44405 4.61055C4.15513 3.89948 5.11955 3.5 6.12516 3.5H21.8752C22.3731 3.5 22.8661 3.59807 23.3262 3.78862C23.7862 3.97917 24.2042 4.25846 24.5563 4.61055C24.9084 4.96264 25.1877 5.38063 25.3782 5.84066C25.5688 6.30068 25.6668 6.79374 25.6668 7.29167V20.7083C25.6668 21.2063 25.5688 21.6993 25.3782 22.1593C25.1877 22.6194 24.9084 23.0374 24.5563 23.3894C24.2042 23.7415 23.7862 24.0208 23.3262 24.2114C22.8661 24.4019 22.3731 24.5 21.8752 24.5H6.12516C5.11955 24.5 4.15513 24.1005 3.44405 23.3894C2.73297 22.6784 2.3335 21.7139 2.3335 20.7083V7.29167ZM6.12516 5.25C5.58368 5.25 5.06437 5.4651 4.68149 5.84799C4.2986 6.23088 4.0835 6.75018 4.0835 7.29167V20.7083C4.0835 21.8353 4.99816 22.75 6.12516 22.75H21.8752C22.4166 22.75 22.936 22.5349 23.3188 22.152C23.7017 21.7691 23.9168 21.2498 23.9168 20.7083V7.29167C23.9168 6.75018 23.7017 6.23088 23.3188 5.84799C22.936 5.4651 22.4166 5.25 21.8752 5.25H6.12516ZM10.5002 10.7917V17.2083C10.5002 17.4111 10.5531 17.6103 10.6535 17.7864C10.754 17.9624 10.8987 18.1093 11.0732 18.2125C11.2477 18.3156 11.4461 18.3715 11.6488 18.3747C11.8515 18.3778 12.0515 18.3281 12.2292 18.2303L18.0625 15.022C18.2454 14.9213 18.398 14.7733 18.5042 14.5936C18.6104 14.4138 18.6665 14.2088 18.6665 14C18.6665 13.7912 18.6104 13.5862 18.5042 13.4064C18.398 13.2267 18.2454 13.0787 18.0625 12.978L12.2292 9.76967C12.0514 9.6719 11.8513 9.62216 11.6485 9.62534C11.4457 9.62853 11.2472 9.68453 11.0727 9.78783C10.8981 9.89113 10.7535 10.0381 10.6531 10.2144C10.5527 10.3906 10.5 10.59 10.5002 10.7928" fill="#415D83"/>
</svg>
