<svg width="28" height="28" viewBox="0 0 28 28" fill="none" xmlns="http://www.w3.org/2000/svg">
<path d="M22.75 1.75H5.25C4.55381 1.75 3.88613 2.02656 3.39384 2.51884C2.90156 3.01113 2.625 3.67881 2.625 4.375V21.875C2.625 22.5712 2.90156 23.2389 3.39384 23.7312C3.88613 24.2234 4.55381 24.5 5.25 24.5V26.25H7V24.5H21V26.25H22.75V24.5C23.4462 24.5 24.1139 24.2234 24.6062 23.7312C25.0984 23.2389 25.375 22.5712 25.375 21.875V4.375C25.375 3.67881 25.0984 3.01113 24.6062 2.51884C24.1139 2.02656 23.4462 1.75 22.75 1.75ZM23.625 21.875C23.625 22.1071 23.5328 22.3296 23.3687 22.4937C23.2046 22.6578 22.9821 22.75 22.75 22.75H5.25C5.01794 22.75 4.79538 22.6578 4.63128 22.4937C4.46719 22.3296 4.375 22.1071 4.375 21.875V4.375C4.375 4.14294 4.46719 3.92038 4.63128 3.75628C4.79538 3.59219 5.01794 3.5 5.25 3.5H22.75C22.9821 3.5 23.2046 3.59219 23.3687 3.75628C23.5328 3.92038 23.625 4.14294 23.625 4.375V21.875Z" fill="#415D83"/>
<path d="M21 4.375H7C6.53587 4.375 6.09075 4.55937 5.76256 4.88756C5.43437 5.21575 5.25 5.66087 5.25 6.125V20.125C5.25 20.5891 5.43437 21.0342 5.76256 21.3624C6.09075 21.6906 6.53587 21.875 7 21.875H21C21.4641 21.875 21.9092 21.6906 22.2374 21.3624C22.5656 21.0342 22.75 20.5891 22.75 20.125V6.125C22.75 5.66087 22.5656 5.21575 22.2374 4.88756C21.9092 4.55937 21.4641 4.375 21 4.375ZM7.5 20.5C6.94772 20.5 6.5 20.0523 6.5 19.5V17.5H8V15.75H6.5V14H8V12.25H6.5V10.5H8V8.75H6.5V6.5C6.5 5.94772 6.94772 5.5 7.5 5.5H20.5C21.0523 5.5 21.5 5.94772 21.5 6.5V19.5C21.5 20.0523 21.0523 20.5 20.5 20.5H7.5Z" fill="#415D83"/>
<path d="M17.5583 16.0417L17.2719 15.7553L16.9323 15.976C16.5956 16.1947 16.2244 16.355 15.8342 16.4499L15.4524 16.5428V16.9357V17.5H14.5476V16.9357V16.5428L14.1658 16.4499C13.7756 16.355 13.4044 16.1947 13.0677 15.976L12.7281 15.7553L12.4417 16.0417L12.1429 16.3405L11.6595 15.8571L11.9583 15.5583L12.2447 15.2719L12.024 14.9323C11.8053 14.5956 11.645 14.2244 11.5501 13.8342L11.4572 13.4524H11.0643H10.5V12.5476H11.0643H11.4572L11.5501 12.1658C11.645 11.7756 11.8053 11.4044 12.024 11.0677L12.2447 10.7281L11.9583 10.4417L11.6595 10.1429L12.1429 9.65949L12.4417 9.95832L12.7281 10.2447L13.0677 10.024C13.4044 9.80526 13.7756 9.64502 14.1658 9.55012L14.5476 9.45724V9.06429V8.5H15.4524V9.06429V9.45724L15.8342 9.55012C16.2244 9.64502 16.5956 9.80526 16.9323 10.024L17.2719 10.2447L17.5583 9.95832L17.8571 9.65949L18.3405 10.1429L18.0417 10.4417L17.7553 10.7281L17.976 11.0677C18.1947 11.4044 18.355 11.7756 18.4499 12.1658L18.5428 12.5476H18.9357H19.5V13.4524H18.9357H18.5428L18.4499 13.8342C18.355 14.2244 18.1947 14.5956 17.976 14.9323L17.7553 15.2719L18.0417 15.5583L18.3405 15.8571L17.8571 16.3405L17.5583 16.0417Z" stroke="#415D83"/>
<path d="M15.75 12.7143H14.5V12.1429H15.75C15.8163 12.1429 15.8799 12.1128 15.9268 12.0592C15.9737 12.0056 16 11.9329 16 11.8571C16 11.7814 15.9737 11.7087 15.9268 11.6551C15.8799 11.6015 15.8163 11.5714 15.75 11.5714H15.25V11.2857C15.25 11.2099 15.2237 11.1373 15.1768 11.0837C15.1299 11.0301 15.0663 11 15 11C14.9337 11 14.8701 11.0301 14.8232 11.0837C14.7763 11.1373 14.75 11.2099 14.75 11.2857V11.5714H14.25C14.1837 11.5714 14.1201 11.6015 14.0732 11.6551C14.0263 11.7087 14 11.7814 14 11.8571V13C14 13.0758 14.0263 13.1484 14.0732 13.202C14.1201 13.2556 14.1837 13.2857 14.25 13.2857H15.5V13.8571H14.25C14.1837 13.8571 14.1201 13.8872 14.0732 13.9408C14.0263 13.9944 14 14.0671 14 14.1429C14 14.2186 14.0263 14.2913 14.0732 14.3449C14.1201 14.3985 14.1837 14.4286 14.25 14.4286H14.75V14.7143C14.75 14.7901 14.7763 14.8627 14.8232 14.9163C14.8701 14.9699 14.9337 15 15 15C15.0663 15 15.1299 14.9699 15.1768 14.9163C15.2237 14.8627 15.25 14.7901 15.25 14.7143V14.4286H15.75C15.8163 14.4286 15.8799 14.3985 15.9268 14.3449C15.9737 14.2913 16 14.2186 16 14.1429V13C16 12.9242 15.9737 12.8516 15.9268 12.798C15.8799 12.7444 15.8163 12.7143 15.75 12.7143Z" fill="#415D83"/>
</svg>
