<svg width="40" height="40" viewBox="0 0 40 40" fill="none" xmlns="http://www.w3.org/2000/svg">
<path d="M33 33.125H34.5C35.125 30.1875 35.125 27.3125 34.5 24.375H33C32.375 27.3125 32.375 30.25 33 33.125ZM25.5 33.125H27C27.625 30.1875 27.625 27.3125 27 24.375H25.5C24.875 27.3125 24.875 30.25 25.5 33.125ZM14.375 36.875V38.125H38.125V36.875H14.375Z" fill="#43FFF1"/>
<path d="M36.875 34.375H15.625V35.625H36.875V34.375Z" fill="#43FFF1"/>
<path d="M18 33.125H19.5C20.125 30.1875 20.125 27.3125 19.5 24.375H18C17.375 27.3125 17.375 30.25 18 33.125Z" fill="#43FFF1"/>
<path d="M28.125 21.875H24.375V23.125H28.125V21.875Z" fill="#43FFF1"/>
<path d="M26.25 18.125C24.625 18.125 23.125 17.5625 21.875 16.5625L13.875 20.625H38.75L30.625 16.5625C29.375 17.5625 27.875 18.125 26.25 18.125Z" fill="#43FFF1"/>
<path d="M35.625 21.875H31.875V23.125H35.625V21.875Z" fill="#43FFF1"/>
<path d="M20.625 21.875H16.875V23.125H20.625V21.875Z" fill="#43FFF1"/>
<path d="M20.6875 10.5625C22.0625 10.5625 23.125 11.6875 23.125 13.0625C23.125 13.875 22.75 14.625 22.125 15.0625C23.1875 16.1875 24.6875 16.875 26.25 16.875C29.375 16.875 31.875 14.375 31.875 11.25C31.875 8.125 29.375 5.625 26.25 5.625C23.4375 5.625 21 7.8125 20.6875 10.5625ZM28.5625 13.375C29.6875 12.0625 29.3125 10.5 29.1875 10.25C29.0625 9.9375 29.25 9.5625 29.5625 9.4375C29.875 9.3125 30.25 9.5 30.375 9.8125C30.5 10.25 30.9375 12.5 29.5 14.1875C29.375 14.375 29.0625 14.5625 28.625 14.25C28.375 14 28.375 13.625 28.5625 13.375ZM26.25 11.875C25.1875 11.875 24.375 11.0625 24.375 10C24.375 9.1875 24.875 8.5 25.625 8.25V7.5C25.625 7.1875 25.9375 6.875 26.25 6.875C26.5625 6.875 26.875 7.1875 26.875 7.5V8.25C27.625 8.5 28.125 9.1875 28.125 10C28.125 10.3125 27.8125 10.625 27.5 10.625C27.1875 10.625 26.875 10.3125 26.875 10C26.875 9.6875 26.5625 9.375 26.25 9.375C25.9375 9.375 25.625 9.6875 25.625 10C25.625 10.3125 25.9375 10.625 26.25 10.625C27.3125 10.625 28.125 11.4375 28.125 12.5C28.125 13.3125 27.625 14 26.875 14.25V15C26.875 15.3125 26.5625 15.625 26.25 15.625C25.9375 15.625 25.625 15.3125 25.625 15V14.25C24.875 14 24.375 13.3125 24.375 12.5C24.375 12.1875 24.6875 11.875 25 11.875C25.3125 11.875 25.625 12.1875 25.625 12.5C25.625 12.8125 25.9375 13.125 26.25 13.125C26.5625 13.125 26.875 12.8125 26.875 12.5C26.875 12.1875 26.5625 11.875 26.25 11.875Z" fill="#43FFF1"/>
<path d="M4.375 1.875H1.875V15.625H4.375V1.875Z" fill="#43FFF1"/>
<path d="M21.875 13.0625C21.875 12.375 21.3125 11.8125 20.625 11.8125H17.125C16.375 11.8125 15.75 11.3125 15.625 10.5625C15.5 9.81249 15.9375 9.1875 16.625 8.9375L20.5 7.5625C21.375 6.1875 22.75 5.125 24.375 4.6875L19.8125 2.1875C19.0625 1.875 18.1875 1.8125 17.4375 1.9375L5.625 4.375V13.125C7.0625 13.0625 9 13.9375 9 13.9375C9.75 14.1875 10.5 14.3125 11.25 14.3125H20.625C21.3125 14.3125 21.875 13.8125 21.875 13.0625ZM16.125 3.4375C16.125 3.4375 18.625 2.75 20.1875 3.5C20.5 3.625 20.6875 4 20.5625 4.3125C20.3125 4.875 19.8125 4.6875 19.75 4.6875C18.5625 4.125 16.3125 4.625 16.3125 4.625C16 4.6875 15.625 4.4375 15.625 4.125C15.5625 3.8125 15.8125 3.5 16.125 3.4375ZM13.875 5.24999C13.875 5.24999 12.5625 5.5 12.5 5.5C12.1875 5.5 11.9375 5.3125 11.875 5C11.8125 4.6875 12 4.3125 12.375 4.25L13.625 4C13.9375 3.9375 14.3125 4.12499 14.375 4.5C14.4375 4.875 14.1875 5.18749 13.875 5.24999Z" fill="#43FFF1"/>
</svg>
