<svg width="36" height="36" viewBox="0 0 36 36" fill="none" xmlns="http://www.w3.org/2000/svg">
<g clip-path="url(#clip0_612_14561)">
<path d="M13.5 6C13.5 2.6865 18.537 0 24.75 0C30.963 0 36 2.6865 36 6C36 9.3135 30.963 12 24.75 12C18.537 12 13.5 9.3135 13.5 6ZM24.75 15C23.2095 15 21.7485 14.8275 20.4135 14.5275C18.375 12.999 15.0345 12 11.25 12C5.037 12 0 14.6865 0 18C0 21.3135 5.037 24 11.25 24C17.463 24 22.5 21.3135 22.5 18C22.5 17.9565 22.4895 17.9145 22.488 17.871H22.5V21C22.5 24.3135 17.463 27 11.25 27C5.037 27 0 24.3135 0 21V24C0 27.3135 5.037 30 11.25 30C17.463 30 22.5 27.3135 22.5 24V27C22.5 30.3135 17.463 33 11.25 33C5.037 33 0 30.3135 0 27V30C0 33.3135 5.037 36 11.25 36C17.463 36 22.5 33.3135 22.5 30V29.88C23.2275 29.958 23.979 30 24.75 30C30.963 30 36 27.3135 36 24V21C36 24.1785 31.362 26.7735 25.5 26.9805V23.9805C31.362 23.7735 36 21.18 36 18V15C36 18.1785 31.362 20.7735 25.5 20.9805V17.9805C31.362 17.7735 36 15.18 36 12V9C36 12.3135 30.963 15 24.75 15Z" fill="#43FFF1"/>
</g>
<defs>
<clipPath id="clip0_612_14561">
<rect width="36" height="36" fill="white"/>
</clipPath>
</defs>
</svg>
