<svg width="24" height="24" viewBox="0 0 24 24" fill="none" xmlns="http://www.w3.org/2000/svg">
<g id="twitter">
<path id="Path" d="M22 5.89415C21.2563 6.21538 20.4638 6.42831 19.6375 6.53169C20.4875 6.032 21.1363 5.24677 21.4413 4.30031C20.6488 4.76554 19.7738 5.09415 18.8413 5.27754C18.0888 4.48862 17.0163 4 15.8463 4C13.5763 4 11.7488 5.81415 11.7488 8.03815C11.7488 8.35815 11.7762 8.66585 11.8438 8.95877C8.435 8.79508 5.41875 7.18646 3.3925 4.736C3.03875 5.34031 2.83125 6.032 2.83125 6.77662C2.83125 8.17477 3.5625 9.41415 4.6525 10.1317C3.99375 10.1194 3.3475 9.93108 2.8 9.63446C2.8 9.64677 2.8 9.66277 2.8 9.67877C2.8 11.6406 4.22125 13.2702 6.085 13.6455C5.75125 13.7354 5.3875 13.7785 5.01 13.7785C4.7475 13.7785 4.4825 13.7637 4.23375 13.7095C4.765 15.3083 6.2725 16.4837 8.065 16.5218C6.67 17.5963 4.89875 18.2437 2.98125 18.2437C2.645 18.2437 2.3225 18.2289 2 18.1883C3.81625 19.3415 5.96875 20 8.29 20C15.835 20 19.96 13.8462 19.96 8.512C19.96 8.33354 19.9538 8.16123 19.945 7.99015C20.7587 7.42154 21.4425 6.71138 22 5.89415Z" fill="#B7C8E5"/>
</g>
</svg>
