<svg width="16" height="16" viewBox="0 0 16 16" fill="none" xmlns="http://www.w3.org/2000/svg">
<rect width="16" height="16" rx="5" fill="#00FFF9"/>
<path d="M11.7349 9.00288C11.7349 9.00288 10.7814 8.03773 7.37013 9.00288C3.9589 9.96802 3.53381 9.00288 3.53381 9.00288V6.8996C3.53381 6.8996 4.28483 7.94702 7.37119 6.8996C10.4575 5.85218 11.736 6.8996 11.736 6.8996V9.00288H11.7349Z" fill="#111C35"/>
<path d="M13.1062 3H3.53381V5.20876H13.1062V3Z" fill="#111C35"/>
<path d="M4.72363 13.2274C5.38075 13.2274 5.91345 12.6947 5.91345 12.0376C5.91345 11.3805 5.38075 10.8478 4.72363 10.8478C4.06651 10.8478 3.53381 11.3805 3.53381 12.0376C3.53381 12.6947 4.06651 13.2274 4.72363 13.2274Z" fill="#111C35"/>
</svg>
