<svg width="160" height="24" viewBox="0 0 160 24" fill="none" xmlns="http://www.w3.org/2000/svg"><g clip-path="url(#a)" fill="#fff"><path d="M24.547 15.514c0-5.644 4.053-8.42 7.734-8.42 2.868 0 4.554 1.558 4.803 2.15h.095v-1.84h4.833v16.217h-4.833v-1.84h-.095c-.249.593-1.935 2.151-4.803 2.151-3.68 0-7.734-2.776-7.734-8.42v.002Zm8.732 4.116c2.122 0 4.024-1.467 4.024-4.116 0-2.649-1.902-4.115-4.024-4.115-2.121 0-3.961 1.496-3.961 4.115 0 2.62 1.902 4.116 3.961 4.116Zm12.659-.996v-7.39h-2.4V7.409h2.4V3.26h4.833v4.148h3.399v3.837h-3.4v6.61c0 .812.47 1.683 1.936 1.683.373 0 .936-.062 1.529-.249v3.68c-.625.625-1.997.842-3.117.842-2.993 0-5.177-1.467-5.177-5.177h-.003Zm9.917-17.152h4.833v7.985c.904-1.372 2.495-2.37 4.804-2.37 3.274 0 6.05 2.026 6.05 6.986v9.544H66.71v-8.7c0-2.026-1.029-3.522-3.026-3.522-1.997 0-2.993 1.496-2.993 3.523v8.699h-4.833V1.482h-.002Zm17.217 14.032c0-5.52 4.364-8.42 8.608-8.42 4.243 0 8.607 2.9 8.607 8.42s-4.364 8.421-8.608 8.421c-4.243 0-8.608-2.9-8.608-8.42Zm8.608 4.054c2.088 0 3.837-1.559 3.837-4.054s-1.745-4.053-3.837-4.053c-2.093 0-3.835 1.558-3.835 4.053s1.746 4.054 3.835 4.054Zm20.3-5.114c0-2.06-1.123-3.055-2.59-3.055-1.466 0-2.744.998-2.744 3.055v9.167h-4.832V7.408h4.832v1.997c.874-1.343 2.37-2.309 4.522-2.309 1.903 0 3.556.812 4.584 2.557.999-1.466 2.744-2.557 5.301-2.557 3.432 0 5.927 2.184 5.927 7.174v9.354h-4.833v-9.168c0-2.059-1.123-3.054-2.59-3.054-1.559 0-2.744.998-2.744 3.054v9.168h-4.833v-9.17ZM22.105.296H0v4.83h22.105V.296ZM0 13.938v-4.83c7.63 3.828 14.472-3.828 22.105 0v4.83c-7.63-3.828-14.475 3.825-22.105 0Zm3.221 10.074a3.22 3.22 0 1 0 0-6.442 3.22 3.22 0 0 0 0 6.442ZM117.413 1.365a1.781 1.781 0 0 1 1.651-1.072 1.772 1.772 0 0 1 1.256.51c.161.158.289.346.385.562.096.216.143.45.143.7 0 .25-.047.494-.143.71a1.764 1.764 0 0 1-1.641 1.074 1.811 1.811 0 0 1-1.264-.508 1.745 1.745 0 0 1-.387-.566 1.738 1.738 0 0 1-.143-.71c0-.256.047-.484.143-.7Zm.293 1.305a1.5 1.5 0 0 0 .308.483 1.45 1.45 0 0 0 1.05.438 1.419 1.419 0 0 0 1.039-.438c.132-.137.236-.297.309-.483.075-.186.111-.387.111-.607 0-.22-.038-.41-.111-.595a1.444 1.444 0 0 0-1.348-.913 1.464 1.464 0 0 0-1.05.436 1.445 1.445 0 0 0-.308.477 1.558 1.558 0 0 0-.111.595c0 .212.038.42.111.607Zm1.469-1.64c.248 0 .43.05.549.147.118.098.178.248.178.447 0 .188-.052.324-.156.412a.706.706 0 0 1-.391.154l.594.918h-.348l-.566-.895h-.342v.895h-.323V1.032h.805V1.03Zm-.143.923c.073 0 .141-.001.207-.007a.593.593 0 0 0 .173-.04.279.279 0 0 0 .12-.101.35.35 0 0 0 .045-.192.314.314 0 0 0-.039-.167.28.28 0 0 0-.106-.096.445.445 0 0 0-.146-.045 1.247 1.247 0 0 0-.164-.011h-.429v.661h.339v-.002Z"/></g><path d="m130.446 0-5.549 14h1.83l1.259-3.234h6.612L135.857 14h1.83l-5.549-14h-1.692Zm-1.85 9.189 2.696-7 2.696 7h-5.392ZM139.231 14h1.692V9.13h2.854c3.01 0 4.821-1.893 4.821-4.575 0-2.662-1.811-4.555-4.821-4.555h-4.546v14Zm1.692-6.468V1.577h2.716c1.968 0 3.227 1.006 3.227 2.978 0 1.972-1.259 2.977-3.227 2.977h-2.716ZM150.53 14h1.693V9.13h2.853c3.01 0 4.821-1.893 4.821-4.575 0-2.662-1.811-4.555-4.821-4.555h-4.546v14Zm1.693-6.468V1.577h2.715c1.968 0 3.227 1.006 3.227 2.978 0 1.972-1.259 2.977-3.227 2.977h-2.715Z" fill="#fff"/><defs><clipPath id="a"><path fill="#fff" d="M0 0h120.897v24H0z"/></clipPath></defs></svg>
