<svg width="56" height="56" viewBox="0 0 56 56" fill="none" xmlns="http://www.w3.org/2000/svg">
<rect width="56" height="56" rx="28" fill="#003CFF" fill-opacity="0.15"/>
<path d="M44 28C44 36.8366 36.8366 44 28 44C19.1634 44 12 36.8366 12 28C12 19.1634 19.1634 12 28 12C36.8366 12 44 19.1634 44 28Z" fill="url(#paint0_linear_989_11763)"/>
<path d="M46.3822 17.4672C46.5057 17.3614 46.5943 17.2241 46.6373 17.0718C46.6804 16.9194 46.676 16.7585 46.6247 16.6084C46.5734 16.4584 46.4775 16.3256 46.3484 16.226C46.2193 16.1264 46.0625 16.0644 45.8971 16.0472C43.5075 15.8002 38.775 16.3352 32.8701 22.2374C30.7247 24.4154 28.7144 26.7094 26.8496 29.1081C25.5115 27.8207 21.1709 24.0271 18.9074 26.2519C18.7654 26.392 18.6806 26.5754 18.6682 26.7694C18.6559 26.9633 18.7168 27.155 18.8401 27.3103C20.0072 28.7826 23.5018 33.1798 24.5516 34.7225C24.805 35.1129 25.1597 35.4353 25.5819 35.6589C26.0042 35.8826 26.4798 36 26.9636 36C27.4473 36 27.923 35.8826 28.3452 35.6589C28.7675 35.4353 29.1222 35.1129 29.3756 34.7225C31.606 31.6245 34.0944 28.7006 36.8171 25.9787C38.8596 23.9437 44.0237 19.4875 46.3822 17.4672Z" fill="white"/>
<defs>
<linearGradient id="paint0_linear_989_11763" x1="46.6667" y1="44" x2="10.5683" y2="17.1241" gradientUnits="userSpaceOnUse">
<stop stop-color="#003CFF"/>
<stop offset="1" stop-color="#0026A2"/>
</linearGradient>
</defs>
</svg>
