<svg width="20" height="20" viewBox="0 0 20 20" fill="none" xmlns="http://www.w3.org/2000/svg">
<path fill-rule="evenodd" clip-rule="evenodd" d="M9.99999 18.3327C14.6024 18.3327 18.3333 14.6017 18.3333 9.99935C18.3333 5.39698 14.6024 1.66602 9.99999 1.66602C5.39762 1.66602 1.66666 5.39698 1.66666 9.99935C1.66666 14.6017 5.39762 18.3327 9.99999 18.3327ZM10.625 5.83268C10.625 5.4875 10.3452 5.20768 9.99999 5.20768C9.65481 5.20768 9.37499 5.4875 9.37499 5.83268V9.99935C9.37499 10.2684 9.54713 10.5072 9.80235 10.5923L12.3023 11.4256C12.6298 11.5348 12.9838 11.3578 13.0929 11.0303C13.2021 10.7029 13.0251 10.3489 12.6976 10.2398L10.625 9.54887V5.83268Z" fill="#4F658C"/>
</svg>
