<svg width="20" height="20" viewBox="0 0 20 20" fill="none" xmlns="http://www.w3.org/2000/svg">
<g id="file 01">
<g id="file">
<path id="Combo shape" fill-rule="evenodd" clip-rule="evenodd" d="M2.5 13.75V4.66665C2.5 3.0098 3.84315 1.66666 5.5 1.66666H12.8333C14.4902 1.66666 15.8333 3.0098 15.8333 4.66666V13.75H8.58333C8.21514 13.75 7.91667 14.0485 7.91667 14.4167C7.91667 15.8894 6.70209 17.0833 5.22933 17.0833C3.73356 17.0833 2.5 15.8708 2.5 14.375V13.75ZM5.83333 5.20832C5.48816 5.20832 5.20833 5.48815 5.20833 5.83332C5.20833 6.1785 5.48816 6.45832 5.83333 6.45832H12.5C12.8452 6.45832 13.125 6.1785 13.125 5.83332C13.125 5.48815 12.8452 5.20832 12.5 5.20832H5.83333ZM5.20833 9.99999C5.20833 9.65481 5.48816 9.37499 5.83333 9.37499H9.16667C9.51185 9.37499 9.79167 9.65481 9.79167 9.99999C9.79167 10.3452 9.51185 10.625 9.16667 10.625H5.83333C5.48816 10.625 5.20833 10.3452 5.20833 9.99999ZM19.0638 15.8249C18.6967 17.2669 17.3896 18.3333 15.8333 18.3333H5.83333C7.38957 18.3333 8.69672 17.2669 9.06381 15.8249C9.17736 15.3789 9.53976 15 10 15H18.3333C18.7936 15 19.1774 15.3789 19.0638 15.8249Z" fill="#43FFF1"/>
</g>
</g>
</svg>
