<svg width="20" height="20" viewBox="0 0 20 20" fill="none" xmlns="http://www.w3.org/2000/svg">
<path fill-rule="evenodd" clip-rule="evenodd" d="M16 0H4C1.79086 0 0 1.79086 0 4V16C0 18.2091 1.79086 20 4 20H16C18.2091 20 20 18.2091 20 16V4C20 1.79086 18.2091 0 16 0ZM14.5303 6.46967C14.8232 6.76256 14.8232 7.23744 14.5303 7.53033L12.5303 9.53033C12.2374 9.82322 11.7626 9.82322 11.4697 9.53033C11.1768 9.23744 11.1768 8.76256 11.4697 8.46967L12.1893 7.75L6 7.75C5.58579 7.75 5.25 7.41421 5.25 7C5.25 6.58579 5.58579 6.25 6 6.25L12.1893 6.25L11.4697 5.53033C11.1768 5.23744 11.1768 4.76256 11.4697 4.46967C11.7626 4.17678 12.2374 4.17678 12.5303 4.46967L14.5303 6.46967ZM5.46967 12.4697C5.17678 12.7626 5.17678 13.2374 5.46967 13.5303L7.46967 15.5303C7.76256 15.8232 8.23744 15.8232 8.53033 15.5303C8.82322 15.2374 8.82322 14.7626 8.53033 14.4697L7.81066 13.75H14C14.4142 13.75 14.75 13.4142 14.75 13C14.75 12.5858 14.4142 12.25 14 12.25H7.81066L8.53033 11.5303C8.82322 11.2374 8.82322 10.7626 8.53033 10.4697C8.23744 10.1768 7.76256 10.1768 7.46967 10.4697L5.46967 12.4697Z" fill="#43FFF6"/>
</svg>
