<svg width="44" height="44" viewBox="0 0 44 44" fill="none" xmlns="http://www.w3.org/2000/svg">
<path fill-rule="evenodd" clip-rule="evenodd" d="M29.5313 26.3312C29.2313 26.6312 28.8244 26.7997 28.4001 26.7997C27.9759 26.7997 27.569 26.6312 27.2689 26.3312L22.0001 21.0624L16.7313 26.3312C16.4296 26.6227 16.0254 26.784 15.6059 26.7803C15.1864 26.7767 14.7851 26.6084 14.4884 26.3117C14.1918 26.0151 14.0235 25.6138 14.0198 25.1943C14.0162 24.7748 14.1775 24.3706 14.4689 24.0688L20.8689 17.6688C21.169 17.3689 21.5759 17.2004 22.0001 17.2004C22.4244 17.2004 22.8313 17.3689 23.1313 17.6688L29.5313 24.0688C29.8313 24.3689 29.9998 24.7758 29.9998 25.2C29.9998 25.6243 29.8313 26.0312 29.5313 26.3312Z" fill="white"/>
</svg>
