<svg width="44" height="44" viewBox="0 0 44 44" fill="none" xmlns="http://www.w3.org/2000/svg">
<path fill-rule="evenodd" clip-rule="evenodd" d="M14.4687 17.6688C14.7687 17.3689 15.1756 17.2004 15.5999 17.2004C16.0242 17.2004 16.4311 17.3689 16.7311 17.6688L21.9999 22.9376L27.2687 17.6688C27.4163 17.516 27.5928 17.3941 27.7881 17.3103C27.9833 17.2264 28.1932 17.1823 28.4057 17.1804C28.6181 17.1786 28.8288 17.2191 29.0254 17.2995C29.2221 17.38 29.4007 17.4988 29.5509 17.649C29.7012 17.7992 29.82 17.9779 29.9004 18.1745C29.9809 18.3711 30.0214 18.5818 30.0195 18.7943C30.0177 19.0067 29.9735 19.2167 29.8897 19.4119C29.8058 19.6071 29.6839 19.7836 29.5311 19.9312L23.1311 26.3312C22.8311 26.6312 22.4242 26.7997 21.9999 26.7997C21.5756 26.7997 21.1687 26.6312 20.8687 26.3312L14.4687 19.9312C14.1687 19.6312 14.0002 19.2243 14.0002 18.8C14.0002 18.3758 14.1687 17.9689 14.4687 17.6688Z" fill="white"/>
</svg>
