<svg width="18" height="21" viewBox="0 0 18 21" fill="none" xmlns="http://www.w3.org/2000/svg">
<path fill-rule="evenodd" clip-rule="evenodd" d="M3.47458 0.714532C5.16252 -0.410762 7.37968 0.620886 7.70853 2.51564H11C12.5188 2.51564 13.75 3.74685 13.75 5.26564C13.75 5.67985 13.4142 6.01564 13 6.01564C12.5858 6.01564 12.25 5.67985 12.25 5.26564C12.25 4.57528 11.6904 4.01564 11 4.01564H7.75V16.5156H11C11.6904 16.5156 12.25 15.956 12.25 15.2656C12.25 14.8514 12.5858 14.5156 13 14.5156C13.4142 14.5156 13.75 14.8514 13.75 15.2656C13.75 16.7844 12.5188 18.0156 11 18.0156H7.70853C7.37968 19.9104 5.16252 20.942 3.47458 19.8167L1.47457 18.4834C0.709528 17.9734 0.25 17.1147 0.25 16.1953V4.336C0.25 3.41653 0.709528 2.5579 1.47457 2.04787L3.47458 0.714532ZM14.4697 12.5296C14.1768 12.2367 14.1768 11.7618 14.4697 11.4689L15.1893 10.7493L10 10.7493C9.58579 10.7493 9.25 10.4135 9.25 9.99927C9.25 9.58505 9.58579 9.24927 10 9.24927L15.1893 9.24927L14.4697 8.5296C14.1768 8.2367 14.1768 7.76183 14.4697 7.46894C14.7626 7.17604 15.2374 7.17604 15.5303 7.46894L16.8232 8.76183C17.5066 9.44525 17.5066 10.5533 16.8232 11.2367L15.5303 12.5296C15.2374 12.8225 14.7626 12.8225 14.4697 12.5296Z" fill="#6379A1"/>
</svg>
