<svg width="14" height="16" viewBox="0 0 14 16" fill="none" xmlns="http://www.w3.org/2000/svg">
<path d="M13.4662 0.708374H0.25V3.78947H13.4662V0.708374Z" fill="#061023"/>
<path d="M0.25 6.10918V9.09011C2.53198 10.2692 4.69504 9.67967 6.8581 9.09011C9.02116 8.50055 11.1842 7.91098 13.4662 9.09011V6.10918C11.1842 4.93005 9.02116 5.51962 6.8581 6.10918C4.69504 6.69874 2.53198 7.2883 0.25 6.10918Z" fill="#061023"/>
<path d="M4.35813 13.7585C4.35813 14.8929 3.43849 15.8125 2.30407 15.8125C1.16964 15.8125 0.25 14.8929 0.25 13.7585C0.25 12.624 1.16964 11.7044 2.30407 11.7044C3.43849 11.7044 4.35813 12.624 4.35813 13.7585Z" fill="#061023"/>
</svg>
