<svg width="16" height="16" viewBox="0 0 16 16" fill="none" xmlns="http://www.w3.org/2000/svg">
<path d="M7.99992 14.3999C11.5345 14.3999 14.3999 11.5345 14.3999 7.99992C14.3999 4.4653 11.5345 1.59992 7.99992 1.59992C4.4653 1.59992 1.59992 4.4653 1.59992 7.99992C1.59992 11.5345 4.4653 14.3999 7.99992 14.3999Z" fill="url(#paint0_linear_6547_2156)"/>
<path fill-rule="evenodd" clip-rule="evenodd" d="M14.6666 7.99992C14.6666 11.6818 11.6818 14.6666 7.99992 14.6666C4.31802 14.6666 1.33325 11.6818 1.33325 7.99992C1.33325 4.31802 4.31802 1.33325 7.99992 1.33325C11.6818 1.33325 14.6666 4.31802 14.6666 7.99992ZM14.3999 7.99992C14.3999 11.5345 11.5345 14.3999 7.99992 14.3999C4.4653 14.3999 1.59992 11.5345 1.59992 7.99992C1.59992 4.4653 4.4653 1.59992 7.99992 1.59992C11.5345 1.59992 14.3999 4.4653 14.3999 7.99992Z" fill="#AAFFFF"/>
<path d="M11.2736 5.90502L8.75588 4.17529L7.94226 5.35407L8.74306 5.90502H4.71984V7.34006H11.2928V5.90502H11.2736Z" fill="#00292D"/>
<path d="M4.71343 8.60212V10.0372C4.71343 10.0372 4.73265 10.0436 4.73906 10.05L4.71343 10.082L7.24396 11.8245L8.05758 10.6458L7.39131 10.1845C8.67259 9.8834 9.93466 9.35808 11.28 10.0308V8.59572C9.01213 7.45537 6.9749 9.73606 4.70703 8.59572L4.71343 8.60212Z" fill="#00292D"/>
<defs>
<linearGradient id="paint0_linear_6547_2156" x1="1.33325" y1="1.33325" x2="17.0195" y2="5.25482" gradientUnits="userSpaceOnUse">
<stop offset="0.164062" stop-color="#6EFFFF"/>
<stop offset="1" stop-color="#00D7D1"/>
</linearGradient>
</defs>
</svg>
