<svg width="22" height="14" viewBox="0 0 22 14" fill="none" xmlns="http://www.w3.org/2000/svg">
<path fill-rule="evenodd" clip-rule="evenodd" d="M11 6C12.6569 6 14 4.65685 14 3C14 1.34315 12.6569 0 11 0C9.34315 0 8 1.34315 8 3C8 4.65685 9.34315 6 11 6ZM11 14C14.866 14 18 12.6569 18 11C18 9.34315 14.866 8 11 8C7.13401 8 4 9.34315 4 11C4 12.6569 7.13401 14 11 14ZM5 8C2.18181 8.15857 0 9.25465 0 10.5832C0 11.6785 1.48287 12.6158 3.5827 13C3.11347 12.4203 2.8528 11.7787 2.8528 11.1038C2.8528 9.9133 3.66387 8.82652 5 8ZM19.1472 11.1038C19.1472 11.7787 18.8865 12.4203 18.4173 13C20.5171 12.6158 22 11.6785 22 10.5832C22 9.25465 19.8182 8.15857 17 8C18.3361 8.82652 19.1472 9.91331 19.1472 11.1038ZM14.7183 5.53539C15.2115 4.8134 15.5 3.94039 15.5 3C15.5 2.68794 15.4682 2.3833 15.4077 2.08914C15.5949 2.0312 15.7938 2 16 2C17.1045 2 18 2.89543 18 4C18 5.10457 17.1045 6 16 6C15.5123 6 15.0653 5.82544 14.7183 5.53539ZM6 2C6.20619 2 6.40509 2.0312 6.59223 2.08914C6.53176 2.3833 6.5 2.68794 6.5 3C6.5 3.94039 6.78845 4.8134 7.28171 5.53539C6.93462 5.82544 6.4877 6 6 6C4.89543 6 4 5.10457 4 4C4 2.89543 4.89543 2 6 2Z" fill="#6379A1"/>
</svg>
