<svg width="17" height="16" viewBox="0 0 17 16" fill="none" xmlns="http://www.w3.org/2000/svg">
<g clip-path="url(#clip0_416_13852)">
<path d="M1.93331 1.33331V10.6666C1.93331 12.8758 3.72417 14.6666 5.93331 14.6666H15.2666" stroke="#69E052" stroke-width="1.5" stroke-linecap="round" stroke-linejoin="round"/>
<path d="M5.26665 9.33335L6.59998 8.00002C7.33636 7.26364 8.53027 7.26364 9.26665 8.00002V8.00002C10.003 8.7364 11.1969 8.7364 11.9333 8.00002L13.2666 6.66669" stroke="#69E052" stroke-width="1.5" stroke-linecap="round" stroke-linejoin="round"/>
<path d="M12.2666 5.25C11.8524 5.25 11.5166 5.58579 11.5166 6C11.5166 6.41421 11.8524 6.75 12.2666 6.75V5.25ZM13.1833 7.66667C13.1833 8.08088 13.5191 8.41667 13.9333 8.41667C14.3475 8.41667 14.6833 8.08088 14.6833 7.66667H13.1833ZM12.2666 6.75H12.9333V5.25H12.2666V6.75ZM13.1833 7V7.66667H14.6833V7H13.1833ZM12.9333 6.75C13.0714 6.75 13.1833 6.86193 13.1833 7H14.6833C14.6833 6.0335 13.8998 5.25 12.9333 5.25V6.75Z" fill="#69E052"/>
</g>
<defs>
<clipPath id="clip0_416_13852">
<rect width="16" height="16" fill="white" transform="translate(0.599976)"/>
</clipPath>
</defs>
</svg>
