<svg width="20" height="20" viewBox="0 0 20 20" fill="none" xmlns="http://www.w3.org/2000/svg">
<path fill-rule="evenodd" clip-rule="evenodd" d="M7.29159 5.62502C7.29159 4.12925 8.50415 2.91669 9.99992 2.91669C11.4957 2.91669 12.7083 4.12925 12.7083 5.62502V6.66669H7.29159V5.62502ZM6.04159 6.72519V5.62502C6.04159 3.43889 7.81379 1.66669 9.99992 1.66669C12.186 1.66669 13.9583 3.43889 13.9583 5.62502V6.72519C15.5005 7.01773 16.6666 8.37269 16.6666 10V15C16.6666 16.841 15.1742 18.3334 13.3333 18.3334H6.66659C4.82564 18.3334 3.33325 16.841 3.33325 15V10C3.33325 8.37269 4.49938 7.01773 6.04159 6.72519ZM11.6666 12.5C11.6666 13.4205 10.9204 14.1667 9.99992 14.1667C9.07944 14.1667 8.33325 13.4205 8.33325 12.5C8.33325 11.5795 9.07944 10.8334 9.99992 10.8334C10.9204 10.8334 11.6666 11.5795 11.6666 12.5Z" fill="#6379A1"/>
</svg>
