<svg width="16" height="16" viewBox="0 0 16 16" fill="none" xmlns="http://www.w3.org/2000/svg">
<g id="Icon Before">
<g id="lock">
<path id="Union" fill-rule="evenodd" clip-rule="evenodd" d="M5.83341 4.49998C5.83341 3.30336 6.80346 2.33331 8.00008 2.33331C9.1967 2.33331 10.1667 3.30336 10.1667 4.49998V5.33331H5.83341V4.49998ZM4.83341 5.38011V4.49998C4.83341 2.75108 6.25118 1.33331 8.00008 1.33331C9.74898 1.33331 11.1667 2.75108 11.1667 4.49998V5.38011C12.4005 5.61415 13.3334 6.69812 13.3334 7.99998V12C13.3334 13.4727 12.1395 14.6666 10.6667 14.6666H5.33341C3.86066 14.6666 2.66675 13.4727 2.66675 12V7.99998C2.66675 6.69812 3.59965 5.61415 4.83341 5.38011ZM9.33341 9.99998C9.33341 10.7364 8.73646 11.3333 8.00008 11.3333C7.2637 11.3333 6.66675 10.7364 6.66675 9.99998C6.66675 9.2636 7.2637 8.66665 8.00008 8.66665C8.73646 8.66665 9.33341 9.2636 9.33341 9.99998Z" fill="#43FFF1"/>
</g>
</g>
</svg>
