<svg width="17" height="18" viewBox="0 0 17 18" fill="none" xmlns="http://www.w3.org/2000/svg">
<path fill-rule="evenodd" clip-rule="evenodd" d="M12.667 0.666626C11.5164 0.666626 10.5837 1.59937 10.5837 2.74996V4.83329C10.5837 5.98389 11.5164 6.91663 12.667 6.91663H14.7503C15.9009 6.91663 16.8337 5.98389 16.8337 4.83329V2.74996C16.8337 1.59937 15.9009 0.666626 14.7503 0.666626H12.667ZM2.25033 11.0833C1.09973 11.0833 0.166992 12.016 0.166992 13.1666V15.25C0.166992 16.4006 1.09973 17.3333 2.25033 17.3333H4.33366C5.48425 17.3333 6.41699 16.4006 6.41699 15.25V13.1666C6.41699 12.016 5.48425 11.0833 4.33366 11.0833H2.25033ZM0.166992 2.74996C0.166992 1.59937 1.09973 0.666626 2.25033 0.666626H4.33366C5.48425 0.666626 6.41699 1.59937 6.41699 2.74996V4.83329C6.41699 5.98389 5.48425 6.91663 4.33366 6.91663H2.25033C1.09973 6.91663 0.166992 5.98389 0.166992 4.83329V2.74996ZM12.667 11.0833C11.5164 11.0833 10.5837 12.016 10.5837 13.1666V15.25C10.5837 16.4006 11.5164 17.3333 12.667 17.3333H14.7503C15.9009 17.3333 16.8337 16.4006 16.8337 15.25V13.1666C16.8337 12.016 15.9009 11.0833 14.7503 11.0833H12.667Z" fill="white"/>
</svg>
