<svg xmlns="http://www.w3.org/2000/svg" width="24" height="24" viewBox="0 0 24 24" fill="none">
    <path d="M12.63 17.9204V16.9214C12.63 16.1875 12.7842 15.5122 13.0925 14.8955C13.407 14.2788 13.8634 13.7823 14.4616 13.4061C15.0598 13.0299 15.7845 12.8418 16.6355 12.8418C17.5113 12.8418 18.2451 13.0299 18.8372 13.4061C19.4292 13.7761 19.8763 14.2695 20.1785 14.8862C20.4869 15.5029 20.6411 16.1813 20.6411 16.9214V17.9204C20.6411 18.6543 20.4869 19.3296 20.1785 19.9463C19.8702 20.5631 19.4169 21.0595 18.8187 21.4357C18.2266 21.8119 17.4989 22 16.6355 22C15.7721 22 15.0413 21.8119 14.4431 21.4357C13.8449 21.0595 13.3916 20.5631 13.0833 19.9463C12.7811 19.3296 12.63 18.6543 12.63 17.9204ZM15.0444 16.9214V17.9204C15.0444 18.4076 15.1616 18.8548 15.3959 19.2618C15.6303 19.6688 16.0435 19.8723 16.6355 19.8723C17.2337 19.8723 17.6438 19.6719 17.8659 19.271C18.094 18.864 18.2081 18.4138 18.2081 17.9204V16.9214C18.2081 16.428 18.1002 15.9778 17.8844 15.5708C17.6685 15.1576 17.2522 14.951 16.6355 14.951C16.0558 14.951 15.6457 15.1576 15.4052 15.5708C15.1647 15.9778 15.0444 16.428 15.0444 16.9214ZM3 7.07863V6.07956C3 5.3395 3.15726 4.66112 3.47179 4.0444C3.78631 3.42769 4.24268 2.93432 4.84089 2.56429C5.4391 2.1881 6.16374 2 7.0148 2C7.88437 2 8.61517 2.1881 9.20722 2.56429C9.80543 2.93432 10.2556 3.42769 10.5578 4.0444C10.86 4.66112 11.0111 5.3395 11.0111 6.07956V7.07863C11.0111 7.81869 10.8569 8.49707 10.5486 9.11378C10.2464 9.72433 9.79618 10.2146 9.19796 10.5846C8.59975 10.9547 7.87203 11.1397 7.0148 11.1397C6.14524 11.1397 5.41135 10.9547 4.81314 10.5846C4.22109 10.2146 3.77089 9.72125 3.46253 9.10453C3.15418 8.48782 3 7.81252 3 7.07863ZM5.43293 6.07956V7.07863C5.43293 7.572 5.54702 8.0222 5.77521 8.42923C6.00956 8.8301 6.42276 9.03053 7.0148 9.03053C7.60685 9.03053 8.01388 8.8301 8.23589 8.42923C8.46408 8.0222 8.57817 7.572 8.57817 7.07863V6.07956C8.57817 5.58619 8.47024 5.13599 8.25439 4.72896C8.03854 4.31576 7.62535 4.10916 7.0148 4.10916C6.42892 4.10916 6.01881 4.31576 5.78446 4.72896C5.55011 5.14215 5.43293 5.59235 5.43293 6.07956ZM4.05458 21.4727L17.0796 2.52729H19.3922L6.36725 21.4727H4.05458Z" fill="#43FFF1"/>
</svg>