<svg width="56" height="56" viewBox="0 0 56 56" fill="none" xmlns="http://www.w3.org/2000/svg">
<rect width="56" height="56" rx="28" fill="#008076" fill-opacity="0.15"/>
<path d="M28.8401 35.8933V34.5612C28.8401 33.5827 29.0457 32.6823 29.4568 31.86C29.8762 31.0377 30.4847 30.3757 31.2823 29.8742C32.0799 29.3726 33.0461 29.1218 34.1808 29.1218C35.3485 29.1218 36.327 29.3726 37.1164 29.8742C37.9058 30.3675 38.5019 31.0254 38.9048 31.8476C39.316 32.6699 39.5216 33.5744 39.5216 34.5612V35.8933C39.5216 36.8718 39.316 37.7722 38.9048 38.5945C38.4937 39.4168 37.8893 40.0787 37.0917 40.5803C36.3023 41.0819 35.332 41.3327 34.1808 41.3327C33.0296 41.3327 32.0552 41.0819 31.2576 40.5803C30.46 40.0787 29.8556 39.4168 29.4445 38.5945C29.0415 37.7722 28.8401 36.8718 28.8401 35.8933ZM32.0593 34.5612V35.8933C32.0593 36.5429 32.2156 37.139 32.528 37.6817C32.8405 38.2244 33.3914 38.4958 34.1808 38.4958C34.9784 38.4958 35.5253 38.2286 35.8213 37.6941C36.1255 37.1514 36.2776 36.5511 36.2776 35.8933V34.5612C36.2776 33.9033 36.1337 33.3031 35.8459 32.7604C35.5581 32.2094 35.0031 31.934 34.1808 31.934C33.4079 31.934 32.8611 32.2094 32.5404 32.7604C32.2197 33.3031 32.0593 33.9033 32.0593 34.5612ZM16.0001 21.4375V20.1054C16.0001 19.1187 16.2098 18.2142 16.6292 17.3919C17.0485 16.5696 17.657 15.9118 18.4546 15.4184C19.2523 14.9168 20.2184 14.666 21.3532 14.666C22.5126 14.666 23.487 14.9168 24.2764 15.4184C25.074 15.9118 25.6743 16.5696 26.0772 17.3919C26.4801 18.2142 26.6816 19.1187 26.6816 20.1054V21.4375C26.6816 22.4243 26.476 23.3288 26.0649 24.1511C25.662 24.9651 25.0617 25.6188 24.2641 26.1122C23.4665 26.6056 22.4962 26.8523 21.3532 26.8523C20.1938 26.8523 19.2153 26.6056 18.4176 26.1122C17.6282 25.6188 17.028 24.961 16.6168 24.1387C16.2057 23.3164 16.0001 22.416 16.0001 21.4375ZM19.244 20.1054V21.4375C19.244 22.0954 19.3962 22.6956 19.7004 23.2383C20.0129 23.7728 20.5638 24.0401 21.3532 24.0401C22.1426 24.0401 22.6853 23.7728 22.9813 23.2383C23.2856 22.6956 23.4377 22.0954 23.4377 21.4375V20.1054C23.4377 19.4476 23.2938 18.8473 23.006 18.3046C22.7182 17.7537 22.1673 17.4782 21.3532 17.4782C20.572 17.4782 20.0252 17.7537 19.7127 18.3046C19.4003 18.8556 19.244 19.4558 19.244 20.1054ZM17.4062 40.6296L34.7729 15.3691H37.8564L20.4898 40.6296H17.4062Z" fill="#43FFF1"/>
</svg>
