<svg xmlns="http://www.w3.org/2000/svg" width="24" height="24" viewBox="0 0 24 24" fill="none">
    <path fill-rule="evenodd" clip-rule="evenodd" d="M11.742 4.54802L5.352 10.943C5.10736 11.188 4.96928 11.5197 4.96781 11.8661C4.96633 12.2124 5.10159 12.5453 5.34413 12.7923L11.078 18.637C11.322 18.8853 11.6545 19.0265 12.0024 19.0295C12.3504 19.0324 12.6852 18.8969 12.9333 18.6528L19.4414 12.2591C19.6281 12.0758 19.7765 11.8572 19.8779 11.6159C19.9793 11.3746 20.0316 11.1155 20.0318 10.8537V5.28354C20.0318 4.9352 19.8936 4.60112 19.6475 4.35481C19.4015 4.1085 19.0677 3.97012 18.7197 3.97012H13.1341C12.8755 3.97018 12.6194 4.02124 12.3806 4.1204C12.1417 4.21956 11.9247 4.36487 11.742 4.54802ZM20.8217 13.6657C21.1949 13.2989 21.4913 12.8613 21.6936 12.3785C21.8959 11.8956 22.0001 11.3773 22 10.8537V5.28354C22 4.41269 21.6544 3.57751 21.0392 2.96173C20.4241 2.34594 19.5897 2 18.7197 2H13.1341C12.617 1.99994 12.1049 2.10186 11.6272 2.29996C11.1495 2.49805 10.7154 2.78842 10.3498 3.15449L3.95985 9.55082C3.34867 10.1631 3.00372 10.9922 3.00003 11.8577C2.99634 12.7233 3.33422 13.5553 3.94017 14.1727L9.67408 20.0174C10.2836 20.6386 11.1147 20.992 11.9845 20.9999C12.8543 21.0077 13.6917 20.6695 14.3124 20.0594L20.8217 13.6657ZM15.9407 6.67313C15.5273 6.4049 15.0585 6.23423 14.5695 6.17403C14.1825 6.12896 13.7903 6.17298 13.4228 6.30272C13.0553 6.43246 12.7223 6.64451 12.4492 6.92268C11.7406 7.63192 11.7144 8.53818 11.8758 9.24348C12.0319 9.93434 12.3928 10.595 12.7116 11.0954C13.0449 11.6208 13.3152 12.0568 13.4319 12.4522C13.5277 12.7792 13.4792 12.9145 13.3375 13.0563C13.243 13.1509 13.0987 13.2192 12.7903 13.143C12.4584 13.059 12.0437 12.8186 11.6685 12.443C11.3573 12.1249 11.1438 11.7243 11.0531 11.2885C10.9626 10.8564 11.0229 10.5398 11.0977 10.3953C11.1604 10.2804 11.1996 10.1541 11.2129 10.0238C11.2263 9.8935 11.2136 9.76186 11.1755 9.63655C11.1374 9.51125 11.0747 9.39481 10.9912 9.29404C10.9076 9.19327 10.8048 9.11019 10.6887 9.04967C10.5727 8.98915 10.4458 8.9524 10.3154 8.94157C10.185 8.93074 10.0537 8.94605 9.92933 8.9866C9.80492 9.02715 9.68983 9.09212 9.59081 9.17773C9.49178 9.26333 9.4108 9.36784 9.35261 9.48515C9.00753 10.1497 8.97341 10.9627 9.12693 11.6943C9.21877 12.1304 9.3841 12.5743 9.62815 12.992L9.29619 13.3229C9.11684 13.5086 9.01753 13.7574 9.01965 14.0157C9.02177 14.274 9.12515 14.5211 9.30752 14.7038C9.48989 14.8866 9.73666 14.9903 9.99469 14.9926C10.2527 14.995 10.5013 14.8958 10.687 14.7165L10.9783 14.4262C11.3819 14.7147 11.8345 14.9275 12.314 15.054C13.1013 15.251 14.0211 15.1578 14.7283 14.4499C15.5313 13.646 15.5497 12.682 15.3201 11.8979C15.1193 11.2123 14.7008 10.5556 14.4095 10.0985L14.3714 10.0381C14.0919 9.59942 13.8754 9.16599 13.7941 8.80743C13.7154 8.46463 13.7915 8.36481 13.8413 8.31621C13.906 8.24646 13.9865 8.19333 14.076 8.16132C14.1656 8.12931 14.2615 8.11937 14.3557 8.13233C14.5814 8.1586 14.9396 8.29782 15.3752 8.73256C15.8082 9.16599 15.9617 9.52061 16.0076 9.77016C16.0506 9.9984 16.0198 10.2344 15.9197 10.4439C15.8613 10.562 15.8271 10.6905 15.8192 10.822C15.8113 10.9535 15.8298 11.0852 15.8737 11.2094C15.9175 11.3336 15.9858 11.4478 16.0745 11.5451C16.1632 11.6424 16.2705 11.7209 16.39 11.776C16.5095 11.8311 16.6389 11.8616 16.7704 11.8658C16.9019 11.8699 17.033 11.8476 17.1557 11.8002C17.2785 11.7528 17.3905 11.6812 17.4852 11.5897C17.5798 11.4982 17.6552 11.3886 17.7068 11.2675C17.943 10.7526 18.0755 10.113 17.9417 9.4024C17.844 8.9128 17.6446 8.44921 17.3565 8.04171L17.6464 7.75144C17.7431 7.66126 17.8207 7.55251 17.8745 7.43168C17.9282 7.31084 17.9572 7.1804 17.9595 7.04814C17.9618 6.91587 17.9375 6.78449 17.888 6.66184C17.8385 6.53918 17.7649 6.42776 17.6714 6.33422C17.578 6.24068 17.4667 6.16694 17.3441 6.11739C17.2216 6.06785 17.0903 6.04352 16.9582 6.04585C16.8261 6.04819 16.6958 6.07714 16.575 6.13098C16.4543 6.18482 16.3457 6.26244 16.2556 6.35922L15.9407 6.67313Z" fill="#3DA329"/>
</svg>