<svg width="32" height="32" viewBox="0 0 32 32" fill="none" xmlns="http://www.w3.org/2000/svg">
<rect width="32" height="32" rx="8" fill="#6379A1" fill-opacity="0.2"/>
<path fill-rule="evenodd" clip-rule="evenodd" d="M18 9H20C21.3979 9 22.5725 9.95608 22.9055 11.25H25C25.4142 11.25 25.75 11.5858 25.75 12C25.75 12.4142 25.4142 12.75 25 12.75H22.9055C22.5725 14.0439 21.3979 15 20 15H18C16.3431 15 15 13.6569 15 12C15 10.3431 16.3431 9 18 9ZM7 11.25C6.58579 11.25 6.25 11.5858 6.25 12C6.25 12.4142 6.58579 12.75 7 12.75H12C12.4142 12.75 12.75 12.4142 12.75 12C12.75 11.5858 12.4142 11.25 12 11.25H7ZM20 19.25C19.5858 19.25 19.25 19.5858 19.25 20C19.25 20.4142 19.5858 20.75 20 20.75H25C25.4142 20.75 25.75 20.4142 25.75 20C25.75 19.5858 25.4142 19.25 25 19.25H20ZM14 17H12C10.6021 17 9.42755 17.9561 9.09451 19.25H7C6.58579 19.25 6.25 19.5858 6.25 20C6.25 20.4142 6.58579 20.75 7 20.75H9.09451C9.42755 22.0439 10.6021 23 12 23H14C15.6569 23 17 21.6569 17 20C17 18.3431 15.6569 17 14 17Z" fill="white"/>
</svg>
