<svg width="16" height="16" viewBox="0 0 16 16" fill="none" xmlns="http://www.w3.org/2000/svg">
<path fill-rule="evenodd" clip-rule="evenodd" d="M16 7.99988C16 10.1216 15.1571 12.1564 13.6569 13.6567C12.1566 15.157 10.1217 15.9999 8 15.9999C5.87827 15.9999 3.84344 15.157 2.34315 13.6567C0.842855 12.1564 0 10.1216 0 7.99988C0 5.87815 0.842855 3.84332 2.34315 2.34302C3.84344 0.842733 5.87827 -0.00012207 8 -0.00012207C10.1217 -0.00012207 12.1566 0.842733 13.6569 2.34302C15.1571 3.84332 16 5.87815 16 7.99988ZM8 4.99988C7.8243 4.99971 7.65165 5.04583 7.49945 5.13361C7.34724 5.22139 7.22085 5.34772 7.133 5.49988C7.06957 5.61775 6.98311 5.7217 6.87876 5.80554C6.77441 5.88938 6.65429 5.95142 6.52552 5.98798C6.39675 6.02454 6.26194 6.03487 6.12911 6.01836C5.99627 6.00186 5.86809 5.95885 5.75218 5.89189C5.63628 5.82493 5.53499 5.73538 5.45433 5.62855C5.37367 5.52172 5.31529 5.39978 5.28263 5.26996C5.24997 5.14015 5.24371 5.00509 5.26421 4.87281C5.28472 4.74053 5.33157 4.61372 5.402 4.49988C5.73222 3.92799 6.24191 3.48104 6.85203 3.22834C7.46214 2.97564 8.13859 2.93131 8.77647 3.10224C9.41434 3.27316 9.978 3.64977 10.38 4.17368C10.782 4.69758 11 5.3395 11 5.99988C11.0002 6.6205 10.8079 7.2259 10.4498 7.73273C10.0916 8.23956 9.58508 8.62287 9 8.82988V8.99988C9 9.2651 8.89464 9.51945 8.70711 9.70699C8.51957 9.89452 8.26522 9.99988 8 9.99988C7.73478 9.99988 7.48043 9.89452 7.29289 9.70699C7.10536 9.51945 7 9.2651 7 8.99988V7.99988C7 7.73466 7.10536 7.48031 7.29289 7.29277C7.48043 7.10524 7.73478 6.99988 8 6.99988C8.26522 6.99988 8.51957 6.89452 8.70711 6.70699C8.89464 6.51945 9 6.2651 9 5.99988C9 5.73466 8.89464 5.48031 8.70711 5.29277C8.51957 5.10524 8.26522 4.99988 8 4.99988ZM8 12.9999C8.26522 12.9999 8.51957 12.8945 8.70711 12.707C8.89464 12.5194 9 12.2651 9 11.9999C9 11.7347 8.89464 11.4803 8.70711 11.2928C8.51957 11.1052 8.26522 10.9999 8 10.9999C7.73478 10.9999 7.48043 11.1052 7.29289 11.2928C7.10536 11.4803 7 11.7347 7 11.9999C7 12.2651 7.10536 12.5194 7.29289 12.707C7.48043 12.8945 7.73478 12.9999 8 12.9999Z" fill="#4F658C"/>
</svg>
