<svg width="14" height="14" viewBox="0 0 14 14" fill="none" xmlns="http://www.w3.org/2000/svg">
<path fill-rule="evenodd" clip-rule="evenodd" d="M13.6666 7.00016C13.6666 10.6821 10.6818 13.6668 6.99992 13.6668C3.31802 13.6668 0.333252 10.6821 0.333252 7.00016C0.333252 3.31826 3.31802 0.333496 6.99992 0.333496C10.6818 0.333496 13.6666 3.31826 13.6666 7.00016ZM9.2391 9.2393C9.04384 9.43456 8.72725 9.43456 8.53199 9.2393L6.99993 7.70723L5.46785 9.2393C5.27259 9.43456 4.95601 9.43456 4.76075 9.2393C4.56548 9.04404 4.56548 8.72746 4.76075 8.5322L6.29282 7.00012L4.76076 5.46806C4.56549 5.2728 4.56549 4.95621 4.76076 4.76095C4.95602 4.56569 5.2726 4.56569 5.46786 4.76095L6.99993 6.29302L8.53198 4.76096C8.72724 4.5657 9.04383 4.5657 9.23909 4.76096C9.43435 4.95622 9.43435 5.2728 9.23909 5.46807L7.70703 7.00012L9.2391 8.53219C9.43436 8.72745 9.43436 9.04403 9.2391 9.2393Z" fill="url(#paint0_linear_974_5053)"/>
<defs>
<linearGradient id="paint0_linear_974_5053" x1="0.333252" y1="0.333496" x2="16.0195" y2="4.25506" gradientUnits="userSpaceOnUse">
<stop stop-color="#FF2828"/>
<stop offset="1" stop-color="#FF6767"/>
</linearGradient>
</defs>
</svg>
