<svg xmlns="http://www.w3.org/2000/svg" width="24" height="24" viewBox="0 0 24 24" fill="none">
    <path fill-rule="evenodd" clip-rule="evenodd" d="M13.4826 3.1086C12.3259 1.9638 10.4537 1.9638 9.29704 3.1086L2.25356 10.0797C1.6741 10.6532 1.38281 11.4079 1.38281 12.1618C1.38281 12.9158 1.6741 13.6705 2.25356 14.244L6.94922 18.8914C8.10592 20.0362 9.97812 20.0362 11.1348 18.8914L17.3095 12.7802L20.3312 11.2849C20.5484 11.1774 20.7002 10.9717 20.7389 10.7325C20.7776 10.4933 20.6983 10.2501 20.5261 10.0797L13.4826 3.1086ZM18.7241 10.4066L16.6927 11.4118L3.0962 11.4118C3.15486 11.3174 3.22568 11.228 3.30873 11.1458L10.3522 4.17473C10.9244 3.60842 11.8553 3.60842 12.4275 4.17473L18.7241 10.4066ZM19.9844 20.9854C20.9844 20.9854 21.9844 20.3922 21.9844 18.7354C21.9844 17.0785 19.9844 14.9854 19.9844 14.9854C19.9844 14.9854 17.9844 17.0785 17.9844 18.7354C17.9844 20.3922 18.9844 20.9854 19.9844 20.9854Z" fill="#F5953D"/>
</svg>