<svg width="56" height="56" viewBox="0 0 56 56" fill="none" xmlns="http://www.w3.org/2000/svg">
<rect width="56" height="56" rx="28" fill="#C37022" fill-opacity="0.15"/>
<path fill-rule="evenodd" clip-rule="evenodd" d="M29.9788 16.1448C28.4365 14.6184 25.9403 14.6184 24.398 16.1448L15.0067 25.4395C14.2341 26.2042 13.8457 27.2106 13.8457 28.2158C13.8457 29.221 14.2341 30.2274 15.0067 30.992L21.2676 37.1885C22.8098 38.7149 25.3061 38.7149 26.8484 37.1885L35.0812 29.0403L39.1102 27.0466C39.3998 26.9033 39.6023 26.6289 39.6538 26.31C39.7054 25.991 39.5997 25.6668 39.3701 25.4395L29.9788 16.1448ZM36.9674 25.8754L34.2589 27.2158L16.1302 27.2158C16.2084 27.0898 16.3029 26.9706 16.4136 26.861L25.8049 17.5663C26.5678 16.8112 27.809 16.8112 28.5719 17.5663L36.9674 25.8754ZM38.6471 39.9805C39.9805 39.9805 41.3138 39.1896 41.3138 36.9805C41.3138 34.7713 38.6471 31.9805 38.6471 31.9805C38.6471 31.9805 35.9805 34.7713 35.9805 36.9805C35.9805 39.1896 37.3138 39.9805 38.6471 39.9805Z" fill="#F5953D"/>
</svg>
