<svg width="20" height="20" viewBox="0 0 20 20" fill="none" xmlns="http://www.w3.org/2000/svg">
<path fill-rule="evenodd" clip-rule="evenodd" d="M8.33342 3.33335C7.00733 3.33335 5.73556 3.86014 4.79788 4.79782C3.8602 5.7355 3.33341 7.00727 3.33341 8.33335C3.33341 8.98996 3.46274 9.64014 3.71402 10.2468C3.96529 10.8534 4.33359 11.4046 4.79788 11.8689C5.26217 12.3332 5.81337 12.7015 6.42 12.9528C7.02663 13.204 7.67681 13.3334 8.33342 13.3334C8.99003 13.3334 9.6402 13.204 10.2468 12.9528C10.8535 12.7015 11.4047 12.3332 11.8689 11.8689C12.3332 11.4046 12.7015 10.8534 12.9528 10.2468C13.2041 9.64014 13.3334 8.98996 13.3334 8.33335C13.3334 7.00727 12.8066 5.7355 11.8689 4.79782C10.9313 3.86014 9.6595 3.33335 8.33342 3.33335ZM3.61937 3.61931C4.86961 2.36907 6.56531 1.66669 8.33342 1.66669C10.1015 1.66669 11.7972 2.36907 13.0475 3.61931C14.2977 4.86955 15.0001 6.56524 15.0001 8.33335C15.0001 9.20883 14.8276 10.0757 14.4926 10.8846C14.2644 11.4355 13.9638 11.9521 13.5997 12.4212L18.0893 16.9108C18.4148 17.2362 18.4148 17.7638 18.0893 18.0893C17.7639 18.4147 17.2363 18.4147 16.9108 18.0893L12.4212 13.5997C11.9522 13.9638 11.4355 14.2644 10.8846 14.4926C10.0758 14.8276 9.20889 15 8.33342 15C7.45794 15 6.59103 14.8276 5.78219 14.4926C4.97335 14.1575 4.23843 13.6665 3.61937 13.0474C3.00031 12.4283 2.50925 11.6934 2.17422 10.8846C1.83919 10.0757 1.66675 9.20883 1.66675 8.33335C1.66675 6.56524 2.36913 4.86955 3.61937 3.61931Z" fill="#6379A1"/>
</svg>
