<svg width="16" height="16" viewBox="0 0 16 16" fill="none" xmlns="http://www.w3.org/2000/svg">
<path d="M8 16C12.4183 16 16 12.4183 16 8C16 3.58172 12.4183 0 8 0C3.58172 0 0 3.58172 0 8C0 12.4183 3.58172 16 8 16Z" fill="#27A17C"/>
<path d="M8.98083 5.39465V6.55639C9.30982 6.58293 9.63116 6.60158 9.95059 6.63601C10.7303 6.71993 11.5073 6.82107 12.2399 7.12591C12.3386 7.16703 12.4352 7.21748 12.5237 7.27749C12.8333 7.48813 12.8386 7.72459 12.5261 7.92663C12.3688 8.02824 12.1928 8.1081 12.0159 8.1705C11.3548 8.40385 10.665 8.50092 9.97115 8.57122C9.64598 8.60421 9.31938 8.62525 8.97844 8.65298V12.3682H7.0461V8.65514C6.69081 8.62621 6.35393 8.60708 6.0192 8.57002C5.25004 8.48514 4.48232 8.38688 3.76194 8.07988C3.62278 8.02059 3.4877 7.93786 3.3727 7.84007C3.20008 7.69303 3.19601 7.50559 3.37653 7.36811C3.54055 7.24306 3.72918 7.1381 3.92213 7.06518C4.60785 6.80576 5.32991 6.71132 6.05387 6.63577C6.37426 6.60254 6.69583 6.58293 7.02888 6.55615V5.40015H4.39027V3.63135H11.6214V5.39441H8.98059L8.98083 5.39465ZM7.04251 6.70606C7.0033 6.70296 6.98345 6.69817 6.96432 6.70033C6.28794 6.77588 5.60797 6.82872 4.93708 6.93774C4.58418 6.99513 4.23558 7.124 3.90683 7.26984C3.62039 7.3968 3.62542 7.62322 3.9097 7.76285C4.15955 7.8855 4.42924 7.98114 4.70037 8.04545C5.57114 8.25227 6.46056 8.31467 7.35261 8.33906C8.68196 8.3754 10.0072 8.33523 11.3108 8.0433C11.5962 7.97946 11.8765 7.86542 12.1392 7.73416C12.3661 7.62083 12.3606 7.43147 12.1478 7.29495C12.0242 7.21581 11.8875 7.14862 11.7478 7.10439C10.856 6.8225 9.93241 6.74958 9.00545 6.70391C8.9978 6.70343 8.98967 6.71515 8.9715 6.72926V8.00242H7.04299V6.70582L7.04251 6.70606Z" fill="white"/>
</svg>
