<svg width="24" height="24" viewBox="0 0 24 24" fill="none" xmlns="http://www.w3.org/2000/svg">
<path fill-rule="evenodd" clip-rule="evenodd" d="M12 11C13.6569 11 15 9.65685 15 8C15 6.34315 13.6569 5 12 5C10.3431 5 9 6.34315 9 8C9 9.65685 10.3431 11 12 11ZM12 19C15.866 19 19 17.6569 19 16C19 14.3431 15.866 13 12 13C8.13401 13 5 14.3431 5 16C5 17.6569 8.13401 19 12 19ZM6 13C3.18181 13.1586 1 14.2547 1 15.5832C1 16.6785 2.48287 17.6158 4.5827 18C4.11347 17.4203 3.8528 16.7787 3.8528 16.1038C3.8528 14.9133 4.66387 13.8265 6 13ZM20.1472 16.1038C20.1472 16.7787 19.8865 17.4203 19.4173 18C21.5171 17.6158 23 16.6785 23 15.5832C23 14.2547 20.8182 13.1586 18 13C19.3361 13.8265 20.1472 14.9133 20.1472 16.1038ZM15.7183 10.5354C16.2115 9.8134 16.5 8.94039 16.5 8C16.5 7.68794 16.4682 7.3833 16.4077 7.08914C16.5949 7.0312 16.7938 7 17 7C18.1045 7 19 7.89543 19 9C19 10.1046 18.1045 11 17 11C16.5123 11 16.0653 10.8254 15.7183 10.5354ZM7 7C7.20619 7 7.40509 7.0312 7.59223 7.08914C7.53176 7.3833 7.5 7.68794 7.5 8C7.5 8.94039 7.78845 9.8134 8.28171 10.5354C7.93462 10.8254 7.4877 11 7 11C5.89543 11 5 10.1046 5 9C5 7.89543 5.89543 7 7 7Z" fill="#43FFF6"/>
</svg>
