<svg width="24" height="24" viewBox="0 0 24 24" fill="none" xmlns="http://www.w3.org/2000/svg">
<path fill-rule="evenodd" clip-rule="evenodd" d="M12.4848 15.612L15.5816 18.7087C15.8839 19.0111 16.3741 19.0111 16.6765 18.7087L19.7732 15.612C20.0756 15.3096 20.0756 14.8194 19.7732 14.5171C19.4709 14.2147 18.9807 14.2147 18.6784 14.5171L16.9032 16.2922V5.77419C16.9032 5.34662 16.5566 5 16.129 5C15.7015 5 15.3548 5.34662 15.3548 5.77419L15.3548 16.2922L13.5797 14.5171C13.2774 14.2147 12.7872 14.2147 12.4848 14.5171C12.1825 14.8194 12.1825 15.3096 12.4848 15.612ZM8.4184 5.22676C8.11606 4.92442 7.62587 4.92442 7.32353 5.22676L4.22676 8.32353C3.92441 8.62587 3.92441 9.11606 4.22676 9.41841C4.5291 9.72075 5.01929 9.72075 5.32163 9.41841L7.09677 7.64326V18.1613C7.09677 18.5889 7.44339 18.9355 7.87097 18.9355C8.29854 18.9355 8.64516 18.5889 8.64516 18.1613V7.64326L10.4203 9.41841C10.7226 9.72075 11.2128 9.72075 11.5152 9.41841C11.8175 9.11606 11.8175 8.62587 11.5152 8.32353L8.4184 5.22676Z" fill="#415D83"/>
</svg>
