<svg width="16" height="14" viewBox="0 0 16 14" fill="none" xmlns="http://www.w3.org/2000/svg">
<path fill-rule="evenodd" clip-rule="evenodd" d="M7.70679 0.29308C7.51926 0.10561 7.26495 0.000295639 6.99979 0.000295639C6.73462 0.000295639 6.48032 0.10561 6.29279 0.29308L0.292786 6.29308C0.105315 6.48061 0 6.73492 0 7.00008C0 7.26525 0.105315 7.51955 0.292786 7.70708L6.29279 13.7071C6.48139 13.8892 6.73399 13.99 6.99619 13.9878C7.25839 13.9855 7.5092 13.8803 7.69461 13.6949C7.88001 13.5095 7.98518 13.2587 7.98746 12.9965C7.98974 12.7343 7.88895 12.4817 7.70679 12.2931L3.41379 8.00008L14.9998 8.00008C15.265 8.00008 15.5194 7.89472 15.7069 7.70719C15.8944 7.51965 15.9998 7.2653 15.9998 7.00008C15.9998 6.73487 15.8944 6.48051 15.7069 6.29297C15.5194 6.10544 15.265 6.00008 14.9998 6.00008L3.41379 6.00008L7.70679 1.70708C7.89426 1.51955 7.99957 1.26525 7.99957 1.00008C7.99957 0.734918 7.89426 0.480609 7.70679 0.29308Z" fill="#4F658C"/>
</svg>
