<svg width="15" height="15" viewBox="0 0 15 15" fill="none" xmlns="http://www.w3.org/2000/svg">
<path fill-rule="evenodd" clip-rule="evenodd" d="M1.46666 1.16669C1.46666 0.890545 1.2428 0.666687 0.96666 0.666687C0.690517 0.666687 0.46666 0.890545 0.46666 1.16669V11.8334C0.46666 13.5823 1.88442 15 3.63333 15H14.3C14.5761 15 14.8 14.7762 14.8 14.5C14.8 14.2239 14.5761 14 14.3 14H3.63333C2.43671 14 1.46666 13.03 1.46666 11.8334V1.16669ZM10.9297 7.08928L12.4667 8.62625V8.16669C12.4667 7.89054 12.6905 7.66669 12.9667 7.66669C13.2428 7.66669 13.4667 7.89054 13.4667 8.16669V9.16669C13.4667 9.81102 12.9443 10.3334 12.3 10.3334H11.3C11.0239 10.3334 10.8 10.1095 10.8 9.83335C10.8 9.55721 11.0239 9.33335 11.3 9.33335H11.7596L10.2226 7.79638C9.89715 7.47095 9.36951 7.47095 9.04407 7.79638L8.26302 8.57743C7.54706 9.29339 6.38626 9.29339 5.6703 8.57743L3.94644 6.85357C3.75118 6.65831 3.75118 6.34173 3.94644 6.14647C4.1417 5.95121 4.45828 5.95121 4.65355 6.14647L6.3774 7.87033C6.70284 8.19576 7.23048 8.19576 7.55591 7.87032L8.33696 7.08928C9.05293 6.37331 10.2137 6.37332 10.9297 7.08928Z" fill="#FF4E4E"/>
</svg>
