<svg width="34" height="34" viewBox="0 0 34 34" fill="none" xmlns="http://www.w3.org/2000/svg">
<path fill-rule="evenodd" clip-rule="evenodd" d="M29.4179 0.333374H4.58203C2.37289 0.333374 0.582031 2.12423 0.582031 4.33337V29.6667C0.582031 31.8758 2.37289 33.6667 4.58203 33.6667H29.4179C31.627 33.6667 33.4179 31.8758 33.4179 29.6667V4.33337C33.4179 2.12423 31.627 0.333374 29.4179 0.333374ZM11.2039 9.44949C11.6847 8.96134 12.4644 8.96134 12.9453 9.44949L16.2288 12.7828C16.7097 13.271 16.7097 14.0624 16.2288 14.5506C15.748 15.0387 14.9683 15.0387 14.4875 14.5506L13.3059 13.3511V23.6667C13.3059 24.3571 12.7546 24.9167 12.0746 24.9167C11.3945 24.9167 10.8432 24.3571 10.8432 23.6667V13.3511L9.66168 14.5506C9.18081 15.0387 8.40117 15.0387 7.9203 14.5506C7.43943 14.0624 7.43943 13.271 7.9203 12.7828L11.2039 9.44949ZM17.771 21.2173L21.0546 24.5506C21.5355 25.0387 22.3151 25.0387 22.796 24.5506L26.0796 21.2173C26.5605 20.7291 26.5605 19.9376 26.0796 19.4495C25.5987 18.9613 24.8191 18.9613 24.3382 19.4495L23.1567 20.6489V10.3334C23.1567 9.64302 22.6054 9.08337 21.9253 9.08337C21.2453 9.08337 20.694 9.64302 20.694 10.3334V20.6489L19.5124 19.4495C19.0316 18.9613 18.2519 18.9613 17.771 19.4495C17.2902 19.9376 17.2902 20.7291 17.771 21.2173Z" fill="#6379A1"/>
</svg>
