<svg width="474" height="100" viewBox="0 0 474 100" fill="none" xmlns="http://www.w3.org/2000/svg">
<path d="M92.4512 65.3914C92.4512 42.1986 109.116 30.793 124.234 30.793C139.352 30.793 144.354 36.6196 144.354 36.6196V28.978L164.216 31.0405V98.7109H144.354V91.1519H143.972C142.951 93.5856 136.032 100 124.234 100C109.116 100 92.4512 88.5944 92.4512 65.4017V65.3914ZM128.339 82.3038C137.053 82.3038 144.869 76.2813 144.869 65.3914C144.869 54.5014 137.053 48.4789 128.339 48.4789C119.625 48.4789 112.065 54.6251 112.065 65.3914C112.065 76.1576 119.882 82.3038 128.339 82.3038Z" fill="#00FFF9"/>
<path d="M173.641 78.2098V0H193.503V28.978L207.476 31.0405V48.8708H193.503V75.0026C193.503 78.3335 195.421 81.9222 201.454 81.9222C202.99 81.9222 205.3 81.6644 207.734 80.9013V96.0297C205.166 98.5872 199.536 99.4844 194.916 99.4844C182.613 99.4844 173.641 93.4619 173.641 78.2098Z" fill="#00FFF9"/>
<path d="M216.964 0H236.826V37.4343C236.826 37.4343 247.076 30.7827 256.564 30.7827C270.022 30.7827 281.427 39.1152 281.427 59.4926V98.7109H261.565V62.9576C261.565 54.6251 257.337 48.4789 249.139 48.4789C240.94 48.4789 236.836 54.6251 236.836 62.9576V98.7109H216.974V0H216.964Z" fill="#00FFF9"/>
<path d="M290.265 65.3914C290.265 42.7142 308.209 30.793 325.637 30.793C343.065 30.793 361.008 42.7142 361.008 65.3914C361.008 88.0685 343.065 99.9897 325.637 99.9897C308.209 99.9897 290.265 88.0685 290.265 65.3914ZM325.637 82.0563C334.227 82.0563 341.404 75.6523 341.404 65.3914C341.404 55.1305 334.227 48.7367 325.637 48.7367C317.046 48.7367 309.879 55.1408 309.879 65.3914C309.879 75.642 317.057 82.0563 325.637 82.0563Z" fill="#00FFF9"/>
<path d="M411.622 61.0395C411.622 52.5833 407.012 48.4789 400.98 48.4789C394.947 48.4789 389.698 52.5833 389.698 61.0395V98.7109H369.836V28.978L389.698 31.0405V36.1452C389.698 36.1452 396.391 30.7827 408.281 30.7827C423.389 30.7827 427.122 38.1974 427.122 38.1974C427.122 38.1974 431.824 30.7827 448.912 30.7827C463.009 30.7827 473.26 39.7546 473.26 60.2558V98.7006H453.398V61.0395C453.398 52.5833 448.788 48.4789 442.766 48.4789C436.362 48.4789 431.484 52.5833 431.484 61.0395V98.7109H411.622V61.0395Z" fill="#00FFF9"/>
<path d="M80.1794 58.6883C80.1794 58.6883 70.857 49.2523 37.5064 58.6883C4.15592 68.1242 0 58.6883 0 58.6883V38.1252C0 38.1252 7.34248 48.3655 37.5168 38.1252C67.691 27.8849 80.1898 38.1252 80.1898 38.1252V58.6883H80.1794Z" fill="#00FFF9"/>
<path d="M93.5856 0H0V21.5943H93.5856V0Z" fill="#00FFF9"/>
<path d="M11.6325 99.9897C18.0569 99.9897 23.2649 94.7817 23.2649 88.3572C23.2649 81.9328 18.0569 76.7248 11.6325 76.7248C5.20803 76.7248 0 81.9328 0 88.3572C0 94.7817 5.20803 99.9897 11.6325 99.9897Z" fill="#00FFF9"/>
</svg>
