<svg width="16" height="16" viewBox="0 0 16 16" fill="none" xmlns="http://www.w3.org/2000/svg">
<path d="M12.0001 6.66667C11.8233 6.66667 11.6537 6.59643 11.5287 6.4714C11.4037 6.34638 11.3334 6.17681 11.3334 6C11.3334 5.82319 11.4037 5.65362 11.5287 5.5286C11.6537 5.40357 11.8233 5.33333 12.0001 5.33333C12.1769 5.33333 12.3465 5.40357 12.4715 5.5286C12.5965 5.65362 12.6667 5.82319 12.6667 6C12.6667 6.17681 12.5965 6.34638 12.4715 6.4714C12.3465 6.59643 12.1769 6.66667 12.0001 6.66667ZM8.00008 6.66667H4.00008V3.33333H8.00008M13.1801 4.82L13.1867 4.81333L10.7067 2.33333L10.0001 3.04L11.4067 4.44667C10.7801 4.66667 10.3334 5.28667 10.3334 6C10.3334 6.21887 10.3765 6.4356 10.4603 6.63781C10.544 6.84002 10.6668 7.02375 10.8216 7.17851C11.1341 7.49107 11.5581 7.66667 12.0001 7.66667C12.2401 7.66667 12.4601 7.61333 12.6667 7.52667V12.3333C12.6667 12.5101 12.5965 12.6797 12.4715 12.8047C12.3465 12.9298 12.1769 13 12.0001 13C11.8233 13 11.6537 12.9298 11.5287 12.8047C11.4037 12.6797 11.3334 12.5101 11.3334 12.3333V9.33333C11.3334 8.59333 10.7334 8 10.0001 8H9.33341V3.33333C9.33341 2.59333 8.73341 2 8.00008 2H4.00008C3.26008 2 2.66675 2.59333 2.66675 3.33333V14H9.33341V9H10.3334V12.3333C10.3334 12.7754 10.509 13.1993 10.8216 13.5118C11.1341 13.8244 11.5581 14 12.0001 14C12.219 14 12.4357 13.9569 12.6379 13.8731C12.8401 13.7894 13.0238 13.6666 13.1786 13.5118C13.3334 13.3571 13.4561 13.1733 13.5399 12.9711C13.6236 12.7689 13.6667 12.5522 13.6667 12.3333V6C13.6667 5.54 13.4801 5.12 13.1801 4.82Z" fill="#415D83"/>
</svg>
