<svg width="56" height="56" viewBox="0 0 56 56" fill="none" xmlns="http://www.w3.org/2000/svg">
<rect width="56" height="56" rx="28" fill="#4F658C" fill-opacity="0.2"/>
<path fill-rule="evenodd" clip-rule="evenodd" d="M23.6667 20.9993C23.6667 18.6061 25.6068 16.666 28 16.666C30.3933 16.666 32.3334 18.6061 32.3334 20.9993V22.666H23.6667V20.9993ZM21.6667 22.7596V20.9993C21.6667 17.5015 24.5022 14.666 28 14.666C31.4978 14.666 34.3334 17.5015 34.3334 20.9993V22.7596C36.8009 23.2277 38.6667 25.3956 38.6667 27.9993V35.9993C38.6667 38.9449 36.2789 41.3327 33.3334 41.3327H22.6667C19.7212 41.3327 17.3334 38.9449 17.3334 35.9993V27.9993C17.3334 25.3956 19.1992 23.2277 21.6667 22.7596ZM30.6667 31.9993C30.6667 33.4721 29.4728 34.666 28 34.666C26.5273 34.666 25.3334 33.4721 25.3334 31.9993C25.3334 30.5266 26.5273 29.3327 28 29.3327C29.4728 29.3327 30.6667 30.5266 30.6667 31.9993Z" fill="#5A81FF"/>
</svg>
