<svg width="36" height="36" viewBox="0 0 36 36" fill="none" xmlns="http://www.w3.org/2000/svg">
<path d="M36 18C36 27.9411 27.9411 36 18 36C8.05887 36 0 27.9411 0 18C0 8.05887 8.05887 0 18 0C27.9411 0 36 8.05887 36 18Z" fill="#221C18"/>
<path d="M28.8047 7.5L19.44 14.4553L21.1718 10.3518L28.8047 7.5Z" fill="#E2761B"/>
<path d="M7.18588 7.5L16.4753 14.5212L14.8282 10.3518L7.18588 7.5ZM25.4353 23.6224L22.9412 27.4435L28.2777 28.9118L29.8118 23.7071L25.4353 23.6224ZM6.19765 23.7071L7.72235 28.9118L13.0588 27.4435L10.5647 23.6224L6.19765 23.7071Z" fill="#E4761B"/>
<path d="M12.7576 17.1659L11.2706 19.4153L16.5694 19.6506L16.3812 13.9565L12.7576 17.1659ZM23.2329 17.1659L19.5624 13.8906L19.44 19.6506L24.7294 19.4153L23.2329 17.1659ZM13.0588 27.4435L16.24 25.8906L13.4918 23.7447L13.0588 27.4435ZM19.7506 25.8906L22.9412 27.4435L22.4988 23.7447L19.7506 25.8906Z" fill="#E4761B"/>
<path d="M22.9412 27.4435L19.7506 25.8906L20.0047 27.9706L19.9765 28.8459L22.9412 27.4435ZM13.0588 27.4435L16.0235 28.8459L16.0047 27.9706L16.24 25.8906L13.0588 27.4435Z" fill="#D7C1B3"/>
<path d="M16.0706 22.3706L13.4165 21.5894L15.2894 20.7329L16.0706 22.3706ZM19.92 22.3706L20.7012 20.7329L22.5835 21.5894L19.92 22.3706Z" fill="#233447"/>
<path d="M13.0588 27.4435L13.5106 23.6224L10.5647 23.7071L13.0588 27.4435ZM22.4894 23.6224L22.9412 27.4435L25.4353 23.7071L22.4894 23.6224ZM24.7294 19.4153L19.44 19.6506L19.9294 22.3706L20.7106 20.7329L22.5929 21.5894L24.7294 19.4153ZM13.4165 21.5894L15.2988 20.7329L16.0706 22.3706L16.5694 19.6506L11.2706 19.4153L13.4165 21.5894Z" fill="#CD6116"/>
<path d="M11.2706 19.4153L13.4918 23.7447L13.4165 21.5894L11.2706 19.4153ZM22.5929 21.5894L22.4988 23.7447L24.7294 19.4153L22.5929 21.5894ZM16.5694 19.6506L16.0706 22.3706L16.6918 25.58L16.8329 21.3541L16.5694 19.6506ZM19.44 19.6506L19.1859 21.3447L19.2988 25.58L19.9294 22.3706L19.44 19.6506Z" fill="#E4751F"/>
<path d="M19.9294 22.3706L19.2988 25.58L19.7506 25.8906L22.4988 23.7447L22.5929 21.5894L19.9294 22.3706ZM13.4165 21.5894L13.4918 23.7447L16.24 25.8906L16.6918 25.58L16.0706 22.3706L13.4165 21.5894Z" fill="#F6851B"/>
<path d="M19.9765 28.8459L20.0047 27.9706L19.7694 27.7635H16.2212L16.0047 27.9706L16.0235 28.8459L13.0588 27.4435L14.0941 28.2906L16.1929 29.7494H19.7976L21.9059 28.2906L22.9412 27.4435L19.9765 28.8459Z" fill="#C0AD9E"/>
<path d="M19.7506 25.8906L19.2988 25.58H16.6918L16.24 25.8906L16.0047 27.9706L16.2212 27.7635H19.7694L20.0047 27.9706L19.7506 25.8906Z" fill="#161616"/>
<path d="M29.2 14.9071L30 11.0671L28.8047 7.5L19.7506 14.22L23.2329 17.1659L28.1553 18.6059L29.2471 17.3353L28.7765 16.9965L29.5294 16.3094L28.9459 15.8576L29.6988 15.2835L29.2 14.9071ZM6 11.0671L6.8 14.9071L6.29177 15.2835L7.04471 15.8576L6.47059 16.3094L7.22353 16.9965L6.75294 17.3353L7.83529 18.6059L12.7576 17.1659L16.24 14.22L7.18588 7.5L6 11.0671Z" fill="#763D16"/>
<path d="M28.1553 18.6059L23.2329 17.1659L24.7294 19.4153L22.4988 23.7447L25.4353 23.7071H29.8118L28.1553 18.6059ZM12.7576 17.1659L7.83529 18.6059L6.19765 23.7071H10.5647L13.4918 23.7447L11.2706 19.4153L12.7576 17.1659ZM19.44 19.6506L19.7506 14.22L21.1812 10.3518H14.8282L16.24 14.22L16.5694 19.6506L16.6824 21.3635L16.6918 25.58H19.2988L19.3176 21.3635L19.44 19.6506Z" fill="#F6851B"/>
</svg>
