<svg width="20" height="20" viewBox="0 0 20 20" fill="none" xmlns="http://www.w3.org/2000/svg">
<path fill-rule="evenodd" clip-rule="evenodd" d="M18.3337 9.99996C18.3337 14.6023 14.6027 18.3333 10.0003 18.3333C5.39795 18.3333 1.66699 14.6023 1.66699 9.99996C1.66699 5.39759 5.39795 1.66663 10.0003 1.66663C14.6027 1.66663 18.3337 5.39759 18.3337 9.99996ZM12.7993 12.7989C12.5552 13.043 12.1595 13.043 11.9154 12.7989L10.0003 10.8838L8.08524 12.7989C7.84116 13.043 7.44544 13.043 7.20136 12.7989C6.95728 12.5548 6.95728 12.1591 7.20136 11.915L9.11645 9.99991L7.20137 8.08483C6.95729 7.84075 6.95729 7.44502 7.20137 7.20095C7.44545 6.95687 7.84118 6.95687 8.08525 7.20095L10.0003 9.11602L11.9154 7.20095C12.1595 6.95688 12.5552 6.95688 12.7993 7.20095C13.0434 7.44503 13.0434 7.84076 12.7993 8.08484L10.8842 9.99991L12.7993 11.915C13.0434 12.1591 13.0434 12.5548 12.7993 12.7989Z" fill="url(#paint0_linear_1942_11728)"/>
<defs>
<linearGradient id="paint0_linear_1942_11728" x1="1.66699" y1="1.66663" x2="21.2748" y2="6.56859" gradientUnits="userSpaceOnUse">
<stop stop-color="#FF2828"/>
<stop offset="1" stop-color="#FF6767"/>
</linearGradient>
</defs>
</svg>
