<svg width="18" height="18" viewBox="0 0 18 18" fill="none" xmlns="http://www.w3.org/2000/svg">
<path fill-rule="evenodd" clip-rule="evenodd" d="M14.2084 7.74984C14.2084 11.3167 11.3169 14.2082 7.75008 14.2082C4.18324 14.2082 1.29175 11.3167 1.29175 7.74984C1.29175 4.183 4.18324 1.2915 7.75008 1.2915C11.3169 1.2915 14.2084 4.183 14.2084 7.74984ZM7.75008 15.4582C12.0073 15.4582 15.4584 12.007 15.4584 7.74984C15.4584 3.49264 12.0073 0.0415039 7.75008 0.0415039C3.49289 0.0415039 0.041748 3.49264 0.041748 7.74984C0.041748 12.007 3.49289 15.4582 7.75008 15.4582ZM16.8515 16.8512C16.2089 17.4938 15.1671 17.4938 14.5245 16.8512L12.9637 15.2905C13.8722 14.6612 14.6614 13.8719 15.2907 12.9635L16.8515 14.5242C17.4941 15.1668 17.4941 16.2086 16.8515 16.8512Z" fill="#324567"/>
</svg>
