<svg width="14" height="14" viewBox="0 0 14 14" fill="none" xmlns="http://www.w3.org/2000/svg">
<path fill-rule="evenodd" clip-rule="evenodd" d="M6.99992 13.6668C10.6818 13.6668 13.6666 10.6821 13.6666 7.00016C13.6666 3.31826 10.6818 0.333496 6.99992 0.333496C3.31802 0.333496 0.333252 3.31826 0.333252 7.00016C0.333252 10.6821 3.31802 13.6668 6.99992 13.6668ZM10.0613 5.30716C10.2308 5.08918 10.1915 4.77504 9.97356 4.60551C9.75559 4.43598 9.44145 4.47524 9.27191 4.69322L6.60058 8.12779C6.54118 8.20416 6.42944 8.21407 6.35753 8.14935L4.66774 6.62854C4.46248 6.44381 4.14634 6.46045 3.96161 6.6657C3.77688 6.87096 3.79352 7.1871 3.99877 7.37183L5.68856 8.89264C6.19198 9.34572 6.97412 9.27634 7.38993 8.74173L10.0613 5.30716Z" fill="url(#paint0_linear_974_491)"/>
<defs>
<linearGradient id="paint0_linear_974_491" x1="0.333252" y1="0.333496" x2="16.0195" y2="4.25506" gradientUnits="userSpaceOnUse">
<stop stop-color="#2AA112"/>
<stop offset="1" stop-color="#44D926"/>
</linearGradient>
</defs>
</svg>
