<?xml version="1.0" standalone="no"?>
<!DOCTYPE svg PUBLIC "-//W3C//DTD SVG 20010904//EN"
 "http://www.w3.org/TR/2001/REC-SVG-20010904/DTD/svg10.dtd">
<svg version="1.0" xmlns="http://www.w3.org/2000/svg"
 width="100.000000pt" height="100.000000pt" viewBox="0 0 100.000000 100.000000"
 preserveAspectRatio="xMidYMid meet">

<g transform="translate(0.000000,100.000000) scale(0.100000,-0.100000)"
fill="#000000" stroke="none">
<path d="M369 982 c-173 -46 -321 -202 -358 -380 -75 -362 259 -678 620 -584
173 46 321 202 358 380 75 362 -259 678 -620 584z m176 -33 c54 -15 98 -50
120 -94 23 -51 21 -127 -5 -172 -11 -20 -19 -37 -17 -40 3 -2 20 5 38 16 42
26 126 28 176 5 96 -46 127 -184 61 -277 -46 -64 -168 -88 -237 -46 -18 11
-35 18 -38 16 -2 -3 5 -20 16 -38 42 -69 18 -191 -46 -237 -163 -116 -365 60
-273 238 7 14 33 47 59 75 l46 49 -51 -46 c-68 -61 -103 -78 -164 -78 -90 0
-152 46 -180 133 -14 46 -1 114 31 159 47 65 168 90 238 47 18 -11 35 -18 38
-16 2 3 -5 20 -16 38 -26 42 -28 126 -5 176 18 38 63 75 109 91 40 14 53 14
100 1z"/>
<path d="M409 917 c-54 -37 -79 -82 -79 -145 0 -63 18 -99 80 -156 56 -52 62
-38 9 19 -71 75 -86 136 -51 205 61 123 253 98 278 -36 10 -55 -4 -99 -47
-148 -49 -55 -44 -75 6 -26 94 91 87 219 -14 287 -47 32 -135 32 -182 0z"/>
<path d="M450 903 c-23 -9 -60 -45 -76 -75 -18 -35 -18 -82 0 -116 21 -40 102
-116 110 -103 4 6 0 11 -8 11 -9 0 -16 6 -16 13 0 7 -13 26 -29 41 -61 59 -65
129 -10 182 25 24 39 29 79 29 53 0 81 -18 107 -69 21 -40 9 -89 -33 -135 -19
-21 -34 -44 -34 -50 0 -6 -7 -11 -16 -11 -8 0 -12 -5 -8 -11 8 -13 89 63 111
105 21 40 12 110 -18 143 -44 46 -108 65 -159 46z"/>
<path d="M453 864 c-39 -19 -67 -74 -58 -113 3 -16 28 -50 56 -76 l49 -47 52
51 c46 44 53 55 53 90 0 77 -84 129 -152 95z m107 -36 c34 -37 27 -86 -22
-137 l-42 -44 -38 43 c-45 50 -52 106 -18 140 28 28 93 27 120 -2z"/>
<path d="M446 818 c-25 -36 -19 -71 19 -114 l35 -39 35 40 c60 69 40 135 -42
135 -22 0 -37 -7 -47 -22z"/>
<path d="M155 656 c-41 -18 -82 -68 -95 -116 -19 -72 21 -160 91 -195 38 -20
128 -19 159 2 43 28 89 76 84 85 -3 5 -24 -7 -45 -27 -47 -42 -77 -55 -127
-55 -149 0 -196 215 -62 282 69 35 130 18 210 -56 23 -21 44 -36 46 -33 9 9
-49 69 -95 98 -50 32 -114 38 -166 15z"/>
<path d="M694 655 c-38 -20 -100 -82 -91 -92 4 -3 22 7 40 24 66 63 131 78
197 45 103 -51 108 -201 8 -262 -61 -37 -138 -23 -199 37 -20 19 -39 31 -42
25 -6 -9 39 -57 83 -85 30 -21 121 -22 158 -3 60 31 94 88 94 156 0 94 -64
161 -160 167 -38 3 -67 -2 -88 -12z"/>
<path d="M162 620 c-44 -27 -72 -76 -72 -128 0 -36 6 -49 38 -83 64 -69 145
-65 216 10 39 41 25 53 -17 14 -59 -56 -94 -65 -152 -37 -63 29 -83 126 -38
176 58 64 121 60 198 -13 31 -30 56 -46 60 -40 3 6 -1 11 -10 11 -9 0 -14 4
-11 8 3 5 -12 25 -32 45 -62 60 -122 72 -180 37z"/>
<path d="M395 600 c21 -22 41 -40 44 -40 3 0 -13 18 -34 40 -21 22 -41 40 -44
40 -3 0 13 -18 34 -40z"/>
<path d="M604 608 l-29 -33 33 29 c30 28 37 36 29 36 -2 0 -16 -15 -33 -32z"/>
<path d="M715 626 c-37 -17 -100 -82 -87 -89 5 -4 24 9 42 28 61 63 136 67
189 11 49 -52 31 -149 -34 -180 -58 -28 -93 -19 -152 37 -42 39 -56 27 -17
-14 69 -73 149 -78 213 -15 33 34 36 41 36 95 0 50 -4 64 -25 86 -50 54 -105
67 -165 41z"/>
<path d="M192 599 c-36 -11 -72 -59 -72 -97 0 -63 64 -119 124 -108 34 7 115
80 98 89 -5 4 -24 -9 -42 -28 -53 -54 -124 -47 -150 15 -10 24 -10 36 0 60 26
63 90 68 152 13 24 -21 46 -42 50 -48 4 -5 10 -6 13 -3 16 16 -112 125 -137
117 -2 0 -18 -5 -36 -10z"/>
<path d="M744 603 c-24 -5 -101 -80 -91 -89 4 -4 25 10 47 30 60 54 124 48
150 -14 10 -24 10 -36 0 -60 -26 -62 -97 -69 -150 -15 -18 19 -37 32 -42 28
-17 -9 64 -82 98 -89 59 -11 124 45 124 106 0 36 -28 77 -64 94 -19 9 -38 15
-43 15 -4 -1 -17 -4 -29 -6z"/>
<path d="M490 590 c0 -5 5 -10 10 -10 6 0 10 5 10 10 0 6 -4 10 -10 10 -5 0
-10 -4 -10 -10z"/>
<path d="M540 590 c0 -5 5 -10 11 -10 5 0 7 5 4 10 -3 6 -8 10 -11 10 -2 0 -4
-4 -4 -10z"/>
<path d="M466 571 c-4 -5 -2 -12 3 -15 5 -4 12 -2 15 3 4 5 2 12 -3 15 -5 4
-12 2 -15 -3z"/>
<path d="M516 571 c-4 -5 -2 -12 3 -15 5 -4 12 -2 15 3 4 5 2 12 -3 15 -5 4
-12 2 -15 -3z"/>
<path d="M171 539 c-52 -86 45 -147 124 -77 l36 31 -37 39 c-50 50 -95 53
-123 7z"/>
<path d="M706 531 l-37 -38 38 -32 c44 -37 91 -41 118 -11 25 27 22 80 -6 102
-35 29 -70 23 -113 -21z"/>
<path d="M580 550 c0 -5 5 -10 11 -10 5 0 7 5 4 10 -3 6 -8 10 -11 10 -2 0 -4
-4 -4 -10z"/>
<path d="M490 540 c0 -5 5 -10 10 -10 6 0 10 5 10 10 0 6 -4 10 -10 10 -5 0
-10 -4 -10 -10z"/>
<path d="M556 531 c-4 -5 -2 -12 3 -15 5 -4 12 -2 15 3 4 5 2 12 -3 15 -5 4
-12 2 -15 -3z"/>
<path d="M425 520 c4 -6 11 -8 16 -5 14 9 11 15 -7 15 -8 0 -12 -5 -9 -10z"/>
<path d="M605 520 c3 -5 8 -10 11 -10 2 0 4 5 4 10 0 6 -5 10 -11 10 -5 0 -7
-4 -4 -10z"/>
<path d="M400 500 c0 -5 5 -10 10 -10 6 0 10 5 10 10 0 6 -4 10 -10 10 -5 0
-10 -4 -10 -10z"/>
<path d="M450 500 c0 -5 5 -10 10 -10 6 0 10 5 10 10 0 6 -4 10 -10 10 -5 0
-10 -4 -10 -10z"/>
<path d="M530 500 c0 -5 5 -10 10 -10 6 0 10 5 10 10 0 6 -4 10 -10 10 -5 0
-10 -4 -10 -10z"/>
<path d="M580 500 c0 -5 5 -10 10 -10 6 0 10 5 10 10 0 6 -4 10 -10 10 -5 0
-10 -4 -10 -10z"/>
<path d="M630 500 c0 -5 5 -10 11 -10 5 0 7 5 4 10 -3 6 -8 10 -11 10 -2 0 -4
-4 -4 -10z"/>
<path d="M376 481 c-4 -5 -2 -12 3 -15 5 -4 12 -2 15 3 4 5 2 12 -3 15 -5 4
-12 2 -15 -3z"/>
<path d="M426 481 c-4 -5 -2 -12 3 -15 5 -4 12 -2 15 3 4 5 2 12 -3 15 -5 4
-12 2 -15 -3z"/>
<path d="M556 481 c-4 -5 -2 -12 3 -15 5 -4 12 -2 15 3 4 5 2 12 -3 15 -5 4
-12 2 -15 -3z"/>
<path d="M605 481 c-3 -5 -1 -12 5 -16 5 -3 10 1 10 9 0 18 -6 21 -15 7z"/>
<path d="M490 460 c0 -5 5 -10 10 -10 6 0 10 5 10 10 0 6 -4 10 -10 10 -5 0
-10 -4 -10 -10z"/>
<path d="M400 450 c0 -5 5 -10 10 -10 6 0 10 5 10 10 0 6 -4 10 -10 10 -5 0
-10 -4 -10 -10z"/>
<path d="M580 450 c0 -5 5 -10 10 -10 6 0 10 5 10 10 0 6 -4 10 -10 10 -5 0
-10 -4 -10 -10z"/>
<path d="M466 441 c-4 -5 -2 -12 3 -15 5 -4 12 -2 15 3 4 5 2 12 -3 15 -5 4
-12 2 -15 -3z"/>
<path d="M516 441 c-4 -5 -2 -12 3 -15 5 -4 12 -2 15 3 4 5 2 12 -3 15 -5 4
-12 2 -15 -3z"/>
<path d="M595 400 c21 -22 41 -40 44 -40 3 0 -13 18 -34 40 -21 22 -41 40 -44
40 -3 0 13 -18 34 -40z"/>
<path d="M440 410 c0 -5 5 -10 10 -10 6 0 10 5 10 10 0 6 -4 10 -10 10 -5 0
-10 -4 -10 -10z"/>
<path d="M490 410 c0 -5 5 -10 10 -10 6 0 10 5 10 10 0 6 -4 10 -10 10 -5 0
-10 -4 -10 -10z"/>
<path d="M540 410 c0 -5 5 -10 10 -10 6 0 10 5 10 10 0 6 -4 10 -10 10 -5 0
-10 -4 -10 -10z"/>
<path d="M386 359 c-45 -49 -56 -76 -56 -135 0 -78 52 -143 130 -164 72 -19
160 21 195 91 17 32 20 106 5 143 -12 33 -80 107 -91 100 -5 -3 9 -26 31 -51
58 -66 66 -148 19 -207 -84 -107 -269 -48 -269 86 0 50 13 80 55 127 20 21 32
42 26 45 -5 3 -25 -12 -45 -35z"/>
<path d="M466 391 c-4 -5 -2 -12 3 -15 5 -4 12 -2 15 3 4 5 2 12 -3 15 -5 4
-12 2 -15 -3z"/>
<path d="M516 391 c-4 -5 -2 -12 3 -15 5 -4 12 -2 15 3 4 5 2 12 -3 15 -5 4
-12 2 -15 -3z"/>
<path d="M413 338 c-99 -103 -46 -248 91 -248 40 0 52 5 87 38 69 64 65 145
-10 216 -41 39 -53 24 -13 -17 60 -63 65 -131 13 -181 -58 -56 -152 -41 -186
30 -26 56 -14 103 39 153 26 24 33 41 18 41 -4 0 -22 -15 -39 -32z"/>
<path d="M490 360 c0 -5 5 -10 10 -10 6 0 10 5 10 10 0 6 -4 10 -10 10 -5 0
-10 -4 -10 -10z"/>
<path d="M436 310 c-44 -49 -52 -77 -33 -123 16 -37 59 -67 97 -67 61 0 118
69 104 128 -7 31 -73 104 -86 96 -5 -3 7 -23 27 -45 53 -59 47 -123 -15 -149
-24 -10 -36 -10 -60 0 -63 26 -69 95 -14 151 20 20 31 39 26 43 -5 3 -26 -12
-46 -34z"/>
<path d="M462 287 c-38 -39 -43 -84 -12 -112 29 -26 79 -24 102 4 28 35 23 72
-15 109 -18 18 -35 32 -38 32 -3 0 -19 -15 -37 -33z"/>
</g>
</svg>
