<svg width="32" height="32" viewBox="0 0 32 32" fill="none" xmlns="http://www.w3.org/2000/svg"><g clip-path="url(#a)"><path d="M.64 12.928c0-4.301 0-6.452.837-8.095a7.68 7.68 0 0 1 3.356-3.356C6.476.64 8.627.64 12.928.64h6.144c4.301 0 6.452 0 8.095.837a7.68 7.68 0 0 1 3.356 3.356c.837 1.643.837 3.794.837 8.095v6.144c0 4.301 0 6.452-.837 8.095a7.68 7.68 0 0 1-3.356 3.356c-1.643.837-3.794.837-8.095.837h-6.144c-4.301 0-6.452 0-8.095-.837a7.68 7.68 0 0 1-3.356-3.356C.64 25.524.64 23.373.64 19.072v-6.144Z" fill="url(#b)"/><path fill-rule="evenodd" clip-rule="evenodd" d="M19.102 0c2.125 0 3.76 0 5.066.107 1.32.108 2.363.328 3.29.8a8.32 8.32 0 0 1 3.635 3.636c.472.926.692 1.968.8 3.289.107 1.306.107 2.94.107 5.067v6.203c0 2.125 0 3.76-.107 5.066-.108 1.32-.328 2.363-.8 3.29a8.32 8.32 0 0 1-3.636 3.635c-.927.472-1.968.692-3.289.8-1.306.107-2.94.107-5.066.107h-6.204c-2.125 0-3.76 0-5.066-.107-1.32-.108-2.363-.328-3.29-.8a8.32 8.32 0 0 1-3.635-3.636c-.472-.927-.692-1.968-.8-3.289C0 22.862 0 21.228 0 19.102v-6.204c0-2.125 0-3.76.107-5.066.108-1.32.328-2.363.8-3.29A8.32 8.32 0 0 1 4.543.908C5.469.435 6.51.215 7.832.107 9.138 0 10.772 0 12.899 0h6.203ZM1.477 4.833C.64 6.476.64 8.627.64 12.928v6.144c0 4.301 0 6.452.837 8.095a7.68 7.68 0 0 0 3.356 3.356c1.643.837 3.794.837 8.095.837h6.144c4.301 0 6.452 0 8.095-.837a7.68 7.68 0 0 0 3.356-3.356c.837-1.643.837-3.794.837-8.095v-6.144c0-4.301 0-6.452-.837-8.095a7.68 7.68 0 0 0-3.356-3.356C25.524.64 23.373.64 19.072.64h-6.144c-4.301 0-6.452 0-8.095.837a7.68 7.68 0 0 0-3.356 3.356Z" fill="#43FFF6"/><path d="M23.895 7.537H8.105v3.456h15.79V7.537Zm-15.79 6.282v3.456c2.726 1.367 5.31.683 7.895 0 2.584-.684 5.169-1.367 7.895 0v-3.456c-2.726-1.367-5.31-.684-7.895 0-2.584.683-5.169 1.367-7.895 0Zm4.608 8.356a2.304 2.304 0 1 1-4.608 0 2.304 2.304 0 0 1 4.608 0Z" fill="#000C24"/></g><defs><linearGradient id="b" x1="0" y1="0" x2="37.647" y2="9.412" gradientUnits="userSpaceOnUse"><stop stop-color="#43FFF6"/><stop offset="1" stop-color="#11CAC1"/></linearGradient><clipPath id="a"><path fill="#fff" d="M0 0h32v32H0z"/></clipPath></defs></svg>
