<svg width="32" height="32" viewBox="0 0 114 84" fill="none" xmlns="http://www.w3.org/2000/svg"><g filter="url(#a)"><path d="M74 47c0 9.941-8.059 18-18 18s-18-8.059-18-18 8.059-18 18-18 18 8.059 18 18Z" fill="url(#b)"/><path fill-rule="evenodd" clip-rule="evenodd" d="M56 63.364c9.037 0 16.364-7.327 16.364-16.364S65.037 30.636 56 30.636 39.636 37.963 39.636 47 46.963 63.364 56 63.364ZM56 65c9.941 0 18-8.059 18-18s-8.059-18-18-18-18 8.059-18 18 8.059 18 18 18Z" fill="#B3FFF9"/><path d="M66.446 41.249 59.424 36.5l-2.27 3.236 2.234 1.513H45.5v3.94h21v-3.94h-.054Z" fill="#071028"/><path d="M45.518 48.653v3.94s.053.017.071.035l-.071.088 7.058 4.784 2.27-3.236-1.86-1.267c3.575-.826 9.762-2.268 13.514-.422v-3.94c-6.325-3.13-14.675 3.131-21 0l.018.018Z" fill="#000C24"/></g><defs><linearGradient id="b" x1="38" y1="29" x2="80.353" y2="39.588" gradientUnits="userSpaceOnUse"><stop stop-color="#80FFF6"/><stop offset="1" stop-color="#00DBCB"/></linearGradient><filter id="a" x="-2" y="-7" width="116" height="116" filterUnits="userSpaceOnUse" color-interpolation-filters="sRGB"><feFlood flood-opacity="0" result="BackgroundImageFix"/><feColorMatrix in="SourceAlpha" values="0 0 0 0 0 0 0 0 0 0 0 0 0 0 0 0 0 0 127 0" result="hardAlpha"/><feOffset dy="4"/><feGaussianBlur stdDeviation="20"/><feColorMatrix values="0 0 0 0 0.00138889 0 0 0 0 0.0287037 0 0 0 0 0.0833333 0 0 0 0.3 0"/><feBlend in2="BackgroundImageFix" result="effect1_dropShadow_2454_23443"/><feBlend in="SourceGraphic" in2="effect1_dropShadow_2454_23443" result="shape"/></filter></defs></svg>
