<svg width="32" height="32" viewBox="0 0 32 32" fill="none" xmlns="http://www.w3.org/2000/svg">
<path d="M32 16C32 24.8366 24.8366 32 16 32C7.16344 32 0 24.8366 0 16C0 7.16344 7.16344 0 16 0C24.8366 0 32 7.16344 32 16Z" fill="url(#paint0_linear_601_10815)"/>
<path d="M17.1969 13.2741L22.0444 8.31279L20.1293 6.4L11.8706 6.40001L9.95555 8.31279L14.8031 13.2741L17.1969 13.2741Z" fill="#1F2041"/>
<path d="M18.7259 17.1969L23.6872 22.0444L25.6 20.1294L25.6 11.8706L23.6872 9.95555L18.7259 14.8031L18.7259 17.1969Z" fill="#1F2041"/>
<path d="M22.0444 23.6872L17.1969 18.7259L14.8031 18.7259L9.95555 23.6872L11.8706 25.6L20.1293 25.6L22.0444 23.6872Z" fill="#1F2041"/>
<path d="M13.2741 14.8031L8.31278 9.95555L6.4 11.8706V20.1294L8.31278 22.0444L13.2741 17.1969V14.8031Z" fill="#1F2041"/>
<defs>
<linearGradient id="paint0_linear_601_10815" x1="-1.55634e-07" y1="14.6667" x2="32" y2="14.6667" gradientUnits="userSpaceOnUse">
<stop stop-color="#1684B9"/>
<stop offset="1" stop-color="#56CB99"/>
</linearGradient>
</defs>
</svg>
