<svg width="25" height="24" viewBox="0 0 25 24" fill="none" xmlns="http://www.w3.org/2000/svg"><path d="M.457 10.854c.372-12.885 21.233-15.977 23.99 0-1.408.708-2.017.998-2.017.998s.71.422 2.014 1.221C23.354 26.48 2.852 28.754.448 13.091c1.331-.85 1.97-1.232 1.97-1.232s-.757-.38-1.961-1.005Z" fill="#B7B5B1"/><path d="M23.474 10.236C19.736-3.96 2.604-.12 1.43 10.236a304.368 304.368 0 0 1 2.916 1.652s-.918.588-2.924 1.862c2.55 13.648 21.036 11.025 22.049-.017-1.866-1.17-2.966-1.85-2.966-1.85s2.515-1.407 2.97-1.647Zm-9.29 6.215-1.957-3.363-1.992 3.363-1.502-.103 2.83-4.77-2.55-4.119 1.537-.137 1.816 3.054 1.817-2.917 1.433.034-2.376 4.05 2.62 4.873-1.677.035Z" fill="#244B81"/></svg>
